<svg width="22" height="20" viewBox="0 0 22 20" fill="none" xmlns="http://www.w3.org/2000/svg">
<path fill-rule="evenodd" clip-rule="evenodd" d="M0.333225 9.99999C0.333225 9.64637 0.4737 9.30723 0.723749 9.05718C0.973797 8.80713 1.31294 8.66666 1.66656 8.66666L17.1146 8.66666L11.3892 2.94399C11.2653 2.82003 11.1669 2.67285 11.0998 2.51088C11.0327 2.34891 10.9982 2.17531 10.9982 1.99999C10.9982 1.82468 11.0327 1.65107 11.0998 1.4891C11.1669 1.32713 11.2653 1.17996 11.3892 1.05599C11.5132 0.932025 11.6604 0.833688 11.8223 0.766597C11.9843 0.699506 12.1579 0.664976 12.3332 0.664976C12.5085 0.664976 12.6821 0.699506 12.8441 0.766597C13.0061 0.833688 13.1533 0.932025 13.2772 1.05599L21.2772 9.05599C21.4014 9.17985 21.4999 9.32698 21.5671 9.48897C21.6343 9.65096 21.6689 9.82461 21.6689 9.99999C21.6689 10.1754 21.6343 10.349 21.5671 10.511C21.4999 10.673 21.4014 10.8201 21.2772 10.944L13.2772 18.944C13.0269 19.1944 12.6873 19.335 12.3332 19.335C11.9792 19.335 11.6396 19.1944 11.3892 18.944C11.1389 18.6936 10.9982 18.3541 10.9982 18C10.9982 17.6459 11.1389 17.3064 11.3892 17.056L17.1146 11.3333L1.66656 11.3333C1.31294 11.3333 0.973797 11.1928 0.723749 10.9428C0.4737 10.6928 0.333225 10.3536 0.333225 9.99999Z" fill="white"/>
</svg>
