<svg width="1008" height="644" viewBox="0 0 1008 644" fill="none" xmlns="http://www.w3.org/2000/svg">
<path d="M-64.5103 58.7835C-69.9787 28.1387 -46.4167 0 -15.2878 0H829.213C853.439 0 874.179 17.3673 878.435 41.2164L975.51 585.217C980.979 615.861 957.417 644 926.288 644H81.7873C57.5614 644 36.8207 626.633 32.5648 602.784L-64.5103 58.7835Z" fill="url(#paint0_radial_226_1568)"/>
<g filter="url(#filter0_f_226_1568)">
<rect x="109.288" y="311.973" width="55.2281" height="52.0488" rx="9" transform="rotate(-70.6326 109.288 311.973)" stroke="#00C6EE" stroke-width="2"/>
</g>
<rect x="108.65" y="312.279" width="56.2281" height="53.0488" rx="9.5" transform="rotate(-70.6326 108.65 312.279)" stroke="#00C6EE"/>
<g filter="url(#filter1_f_226_1568)">
<rect x="859.021" y="588.826" width="176.674" height="166.748" rx="9" transform="rotate(-120 859.021 588.826)" stroke="#00C6EE" stroke-width="2"/>
</g>
<rect x="858.838" y="589.509" width="177.674" height="167.748" rx="9.5" transform="rotate(-120 858.838 589.509)" stroke="#00C6EE"/>
<g filter="url(#filter2_f_226_1568)">
<rect x="510.862" y="272.807" width="114.165" height="107.711" rx="9" transform="rotate(-120 510.862 272.807)" stroke="#00C6EE" stroke-width="2"/>
</g>
<rect x="510.679" y="273.49" width="115.165" height="108.711" rx="9.5" transform="rotate(-120 510.679 273.49)" stroke="#00C6EE"/>
<defs>
<filter id="filter0_f_226_1568" x="104.76" y="255.343" width="76.4734" height="78.4183" filterUnits="userSpaceOnUse" color-interpolation-filters="sRGB">
<feFlood flood-opacity="0" result="BackgroundImageFix"/>
<feBlend mode="normal" in="SourceGraphic" in2="BackgroundImageFix" result="shape"/>
<feGaussianBlur stdDeviation="3" result="effect1_foregroundBlur_226_1568"/>
</filter>
<filter id="filter1_f_226_1568" x="766.976" y="348.74" width="240.16" height="243.793" filterUnits="userSpaceOnUse" color-interpolation-filters="sRGB">
<feFlood flood-opacity="0" result="BackgroundImageFix"/>
<feBlend mode="normal" in="SourceGraphic" in2="BackgroundImageFix" result="shape"/>
<feGaussianBlur stdDeviation="3" result="effect1_foregroundBlur_226_1568"/>
</filter>
<filter id="filter2_f_226_1568" x="450.072" y="116.375" width="157.778" height="160.14" filterUnits="userSpaceOnUse" color-interpolation-filters="sRGB">
<feFlood flood-opacity="0" result="BackgroundImageFix"/>
<feBlend mode="normal" in="SourceGraphic" in2="BackgroundImageFix" result="shape"/>
<feGaussianBlur stdDeviation="3" result="effect1_foregroundBlur_226_1568"/>
</filter>
<radialGradient id="paint0_radial_226_1568" cx="0" cy="0" r="1" gradientUnits="userSpaceOnUse" gradientTransform="translate(769.251 138.552) rotate(145.286) scale(887.565 550.782)">
<stop stop-color="#2F71FF"/>
<stop offset="1" stop-color="#002880"/>
</radialGradient>
</defs>
</svg>
