<svg width="84" height="84" viewBox="0 0 84 84" fill="none" xmlns="http://www.w3.org/2000/svg">
<g clip-path="url(#clip0_89_854)">
<path d="M50.6797 14.5514C48.7167 12.5885 46.4721 10.9722 44.0084 9.7473C43.3855 9.43771 42.63 9.69152 42.3204 10.3143C42.0108 10.9371 42.2646 11.6928 42.8874 12.0023C45.1066 13.1055 47.1292 14.5622 48.8988 16.3321C57.8468 25.2801 57.8468 39.8396 48.8988 48.7876C44.5643 53.1223 38.8011 55.5094 32.6712 55.5094C26.541 55.5094 20.778 53.1223 16.4435 48.7876C12.1088 44.4531 9.72165 38.6899 9.72165 32.5599C9.72165 26.4298 12.1088 20.6666 16.4435 16.3321C19.0584 13.7171 22.1573 11.8237 25.6534 10.7043C28.9903 9.63606 32.5911 9.34453 36.0658 9.86116C36.7546 9.9637 37.3946 9.48874 37.4966 8.80082C37.5987 8.11291 37.1242 7.47241 36.4363 7.3702C32.582 6.79713 28.5877 7.12049 24.8855 8.30585C21.0582 9.53106 17.523 11.6908 14.6624 14.5514C9.85224 19.3615 7.20312 25.757 7.20312 32.5599C7.20312 39.3627 9.85224 45.7582 14.6624 50.5683C19.4727 55.3787 25.8682 58.0278 32.671 58.0278C39.4736 58.0278 45.8692 55.3787 50.6795 50.5683C60.6096 40.6383 60.6096 24.4813 50.6797 14.5514Z" fill="#00C6EE"/>
<path d="M81.9918 72.4031L59.9587 50.3703C63.8731 44.3438 65.6919 37.1177 65.0904 29.9024C64.452 22.2429 61.1038 15.0265 55.6629 9.58223C49.4887 3.40446 41.3017 0.0013125 32.6098 0C32.6077 0 32.6068 0 32.6047 0C23.915 0 15.7281 3.40069 9.5536 9.57518C-3.15665 22.2856 -3.15648 42.9668 9.55377 55.6771C14.9979 61.1212 22.2151 64.4716 29.8764 65.1113C37.0944 65.7138 44.3211 63.8958 50.3489 59.9801L72.3818 82.0129C73.7066 83.3377 75.4465 84 77.1867 84C78.9269 84 80.667 83.3377 81.9918 82.0129C84.6411 79.3634 84.6411 75.0525 81.9918 72.4031ZM80.2111 80.2321C78.5432 81.8998 75.8299 81.8997 74.1624 80.2321L51.3966 57.4662C51.153 57.2225 50.8304 57.0974 50.5059 57.0974C50.2555 57.0974 50.0037 57.1718 49.786 57.3238C44.0696 61.3106 37.0749 63.1849 30.086 62.6018C23.0176 62.0115 16.3583 58.9199 11.3348 53.8963C-0.393836 42.168 -0.394 23.0844 11.3345 11.3559C17.0337 5.65671 24.5871 2.51836 32.6047 2.51836C32.6062 2.51836 32.608 2.51836 32.6095 2.51836C40.6285 2.51951 48.1833 5.66048 53.8818 11.3625C58.9025 16.3861 61.9919 23.0447 62.5809 30.1117C63.1622 37.0845 61.2951 44.0662 57.3242 49.7756C56.4696 50.8326 54.1085 53.6607 52.9503 54.665C52.4248 55.1206 52.3682 55.9158 52.8238 56.4411C53.0728 56.7284 53.4234 56.8754 53.7757 56.8754C54.068 56.8754 54.3619 56.7742 54.6001 56.5676C55.6668 55.6426 57.3834 53.6471 58.4258 52.3988L80.2111 74.1838C81.8784 75.8512 81.8784 78.5646 80.2111 80.2321Z" fill="#00C6EE"/>
</g>
<defs>
<clipPath id="clip0_89_854">
<rect width="84" height="84" fill="white"/>
</clipPath>
</defs>
</svg>
