<svg width="80" height="84" viewBox="0 0 80 84" fill="none" xmlns="http://www.w3.org/2000/svg">
<path d="M78.8531 20.5779L58.6355 0.360445C58.4128 0.16275 58.175 0.00525 57.7653 0H23.7223C20.3298 0 17.57 2.75986 17.57 6.15234V20.8407H14.7384C13.8617 20.8407 13.1487 21.5539 13.1487 22.4305V24.5329C11.6668 25.1101 10.2925 25.9061 9.04955 26.9072L7.23436 25.8571C6.86637 25.644 6.43735 25.5875 6.0267 25.6974C5.61605 25.8075 5.27283 26.071 5.06053 26.4393L0.997363 33.4919C0.5603 34.2502 0.820995 35.2237 1.57864 35.6619L3.39661 36.7137C3.27701 37.4981 3.21664 38.2942 3.21664 39.0879C3.21664 39.8815 3.27701 40.6773 3.39661 41.462L1.5788 42.5138C0.821159 42.9521 0.5603 43.9256 0.997198 44.6836L5.06053 51.7361C5.27283 52.1046 5.61605 52.3681 6.0267 52.4782C6.43735 52.5881 6.86637 52.5317 7.2342 52.3185L9.04955 51.2682C10.2927 52.2695 11.6672 53.0657 13.1488 53.6427V55.7452C13.1488 56.6217 13.862 57.3349 14.7384 57.3349H22.8639C23.7405 57.3349 24.4535 56.6217 24.4535 55.7452V53.6427C25.9354 53.0655 27.3099 52.2695 28.5528 51.2684L30.3683 52.3187C30.7363 52.5315 31.165 52.5883 31.576 52.478C31.9865 52.3679 32.3295 52.1044 32.5418 51.7361L36.605 44.6837C37.0421 43.9254 36.7812 42.9521 36.0237 42.5138L34.2057 41.4619C34.3253 40.6775 34.3857 39.8815 34.3857 39.0877C34.3857 38.2942 34.3253 37.4983 34.2057 36.7136L36.0236 35.6618C36.7814 35.2236 37.0421 34.25 36.6052 33.4919L32.5418 26.4393C32.3295 26.071 31.9865 25.8074 31.576 25.6974C31.165 25.5872 30.7363 25.644 30.368 25.8569L28.5528 26.9072C27.3099 25.9061 25.9355 25.1101 24.4535 24.5329V22.4305C24.4535 21.5539 23.7404 20.8407 22.8639 20.8407H20.0307V6.15234C20.0307 4.11682 21.6868 2.46094 23.7222 2.46094H56.5345V7.38281H45.0875C44.4078 7.38281 43.8571 7.93373 43.8571 8.61328C43.8571 9.29283 44.4078 9.84375 45.0875 9.84375H56.5345V16.5263C56.5345 16.5685 56.5368 16.6103 56.5378 16.6523H28.0421C27.8158 16.6523 27.6319 16.4683 27.6319 16.2422V10.2539C27.6319 10.0278 27.8158 9.84375 28.0421 9.84375H39.3453C40.025 9.84375 40.5758 9.29283 40.5758 8.61328C40.5758 7.93373 40.025 7.38281 39.3453 7.38281H28.0421C26.459 7.38281 25.171 8.67087 25.171 10.2539V16.2422C25.171 17.8252 26.459 19.1133 28.0421 19.1133H57.1069C58.0859 21.2164 60.2183 22.6787 62.687 22.6787H76.7522V77.8477C76.7522 79.8832 75.0962 81.5391 73.0608 81.5391H23.7223C21.687 81.5391 20.0309 79.8832 20.0309 77.8477V61.8466C20.0309 61.1671 19.4802 60.6162 18.8004 60.6162C18.1207 60.6162 17.57 61.1671 17.57 61.8466V77.8477C17.57 81.2401 20.3298 84 23.7223 84H73.0608C76.4533 84 79.2132 81.2401 79.2132 77.8477V21.4513C79.2288 21.3204 79.0967 20.8115 78.8531 20.5779V20.5779ZM21.9928 23.3016V25.1431C21.9928 25.8205 22.4244 26.4242 23.0667 26.6451C24.6686 27.1966 26.1316 28.044 27.4147 29.1639C27.9281 29.6118 28.6678 29.6842 29.2558 29.3439L30.8454 28.4242L34.0389 33.9673L32.4468 34.8884C31.861 35.2272 31.5545 35.9025 31.6838 36.5674C31.8439 37.3946 31.9251 38.2426 31.9251 39.0881C31.9251 39.9333 31.8439 40.7813 31.6839 41.6076C31.5545 42.2737 31.861 42.9486 32.4467 43.2874L34.0389 44.2086L30.8454 49.7516L29.256 48.8321C28.6681 48.4918 27.9279 48.5641 27.4147 49.0122C26.1314 50.1319 24.6686 50.9793 23.0664 51.531C22.4243 51.7524 21.9928 52.3558 21.9928 53.0329V54.8743H15.6098V53.0329C15.6098 52.3558 15.1783 51.7522 14.5358 51.5309C12.9341 50.9795 11.4711 50.1321 10.1878 49.012C9.6743 48.564 8.93438 48.492 8.34654 48.8321L6.7571 49.7516L3.56363 44.2086L5.15618 43.2872C5.74156 42.9483 6.04819 42.2732 5.91875 41.6087C5.75862 40.7815 5.67741 39.9333 5.67741 39.0881C5.67741 38.2428 5.75862 37.3946 5.91858 36.5685C6.04803 35.9028 5.74172 35.2278 5.15586 34.8885L3.56363 33.9673L6.7571 28.4243L8.34703 29.3442C8.93471 29.684 9.67463 29.6116 10.188 29.1639C11.4711 28.044 12.9339 27.1966 14.5355 26.6452C15.1779 26.4242 15.6096 25.8206 15.6096 25.1431V23.3016H21.9928ZM62.687 20.2178C61.006 20.2178 59.5849 19.0879 59.1405 17.548C59.1365 17.534 59.1331 17.5201 59.1286 17.5065C59.0425 17.1941 58.9956 16.8656 58.9956 16.5263V8.61656C58.9956 8.61541 58.9958 8.61443 58.9958 8.61328C58.9958 8.61213 58.9956 8.61115 58.9956 8.61V4.20082L75.0124 20.2176H62.687V20.2178ZM10.8887 39.0879C10.8887 43.451 14.4383 47.0005 18.8013 47.0005C23.1642 47.0005 26.7138 43.451 26.7138 39.0879C26.7138 34.7248 23.1642 31.1753 18.8013 31.1753C14.4383 31.1753 10.8887 34.7248 10.8887 39.0879ZM24.2531 39.0879C24.2531 42.094 21.8075 44.5395 18.8014 44.5395C15.7953 44.5395 13.3496 42.094 13.3496 39.0879C13.3496 36.0818 15.7951 33.6363 18.8013 33.6363C21.8074 33.6363 24.2531 36.0818 24.2531 39.0879ZM70.6002 34.6172H43.6288C42.9491 34.6172 42.3984 35.1681 42.3984 35.8477C42.3984 36.5272 42.9491 37.0781 43.6288 37.0781H70.6001C71.2798 37.0781 71.8305 36.5272 71.8305 35.8477C71.8305 35.1681 71.2798 34.6172 70.6002 34.6172V34.6172ZM32.5546 57.9961C32.5546 58.6756 33.1054 59.2266 33.7851 59.2266H70.6001C71.2798 59.2266 71.8305 58.6756 71.8305 57.9961C71.8305 57.3165 71.2798 56.7656 70.6001 56.7656H33.7851C33.1055 56.7656 32.5546 57.3165 32.5546 57.9961V57.9961ZM25.1718 65.3789C25.1718 66.0585 25.7226 66.6094 26.4023 66.6094H70.6001C71.2798 66.6094 71.8305 66.0585 71.8305 65.3789C71.8305 64.6994 71.2798 64.1484 70.6001 64.1484H26.4023C25.7227 64.1484 25.1718 64.6994 25.1718 65.3789ZM26.4023 73.9922H70.6001C71.2798 73.9922 71.8305 73.4413 71.8305 72.7617C71.8305 72.0822 71.2798 71.5312 70.6001 71.5312H26.4023C25.7226 71.5312 25.1718 72.0822 25.1718 72.7617C25.1718 73.4413 25.7227 73.9922 26.4023 73.9922ZM70.6002 27.2344H41.9093C41.2296 27.2344 40.6788 27.7853 40.6788 28.4648C40.6788 29.1444 41.2296 29.6953 41.9093 29.6953H70.6002C71.2799 29.6953 71.8307 29.1444 71.8307 28.4648C71.8307 27.7853 71.2798 27.2344 70.6002 27.2344ZM39.9374 50.6133C39.9374 51.2928 40.4882 51.8438 41.1679 51.8438H70.6001C71.2798 51.8438 71.8305 51.2928 71.8305 50.6133C71.8305 49.9337 71.2798 49.3828 70.6001 49.3828H41.1679C40.4884 49.3828 39.9374 49.9337 39.9374 50.6133ZM70.6002 42H43.6288C42.9491 42 42.3984 42.5509 42.3984 43.2305C42.3984 43.91 42.9491 44.4609 43.6288 44.4609H70.6001C71.2798 44.4609 71.8305 43.91 71.8305 43.2305C71.8305 42.5509 71.2798 42 70.6002 42V42Z" fill="#00C6EE"/>
</svg>
