<svg width="84" height="74" viewBox="0 0 84 74" fill="none" xmlns="http://www.w3.org/2000/svg">
<path d="M69.3627 21.5475H63.2546V15.0399C63.2546 11.3108 61.8516 7.75833 59.3038 5.03735C58.8302 4.53138 58.0361 4.50546 57.5305 4.97911C57.0247 5.45276 56.9986 6.24666 57.4722 6.7523C59.5829 9.00668 60.7455 11.95 60.7455 15.0399V21.5475H35.2154C27.1443 21.5475 20.578 28.1139 20.578 36.1849V40.6734H18.6129C17.8311 40.6734 17.096 40.9779 16.5429 41.5308L9.88395 48.1897V41.4911C9.88395 40.4648 9.3345 39.5005 8.44971 38.9745C4.78554 36.7959 2.50917 32.7997 2.50917 28.5454V15.0399C2.50917 8.3524 7.94981 2.91176 14.6373 2.91176H48.6173C50.1848 2.91176 51.7094 3.20592 53.1489 3.78638C53.7915 4.0451 54.5226 3.73437 54.7816 3.0919C55.0407 2.44927 54.7298 1.7182 54.0871 1.45915C52.3482 0.757947 50.5078 0.402588 48.6173 0.402588H14.6373C6.56627 0.402588 0 6.96886 0 15.0399V28.5454C0 33.6802 2.74641 38.5028 7.1674 41.1313C7.29537 41.2074 7.37477 41.3452 7.37477 41.4912V48.7956C7.37477 49.7122 7.92192 50.5311 8.76881 50.882C9.33401 51.1537 10.488 51.1145 11.2299 50.3926L18.3171 43.3053C18.3962 43.2262 18.5012 43.1827 18.6129 43.1827H20.578V49.6902C20.578 51.6659 20.9652 53.583 21.7288 55.3883C21.9986 56.0263 22.7348 56.3244 23.373 56.055C24.0112 55.7852 24.3096 55.049 24.0399 54.4108C23.4079 52.9165 23.0874 51.3284 23.0874 49.6904V36.1851C23.0874 29.4974 28.528 24.0568 35.2155 24.0568H69.3627C76.0502 24.0568 81.4908 29.4974 81.4908 36.1851V49.6904C81.4908 53.9613 79.307 57.8378 75.6489 60.0601C74.7867 60.584 74.2511 61.54 74.2511 62.5549V70.7377L66.1894 62.6758C65.6365 62.1229 64.9013 61.8184 64.1194 61.8184H35.2154C32.1718 61.8184 29.2615 60.6864 27.0203 58.631C26.5097 58.1629 25.7161 58.197 25.2476 58.7076C24.7792 59.2183 24.8135 60.0119 25.3242 60.4803C28.0294 62.9614 31.542 64.3277 35.2152 64.3277H64.1191C64.2292 64.3277 64.3369 64.3724 64.4147 64.4503L72.9048 72.9404C73.5604 73.4442 74.2012 73.8337 75.3657 73.4298C76.2126 73.0788 76.7598 72.26 76.7598 71.3434V62.5547C76.7598 62.4105 76.8333 62.2761 76.9514 62.2044C81.3652 59.5232 84 54.8451 84 49.6902V36.1849C84 28.1139 77.4337 21.5475 69.3627 21.5475V21.5475Z" fill="#00C6EE"/>
<path d="M48.7478 51.468C48.0121 50.4285 46.6719 49.7316 45.1433 49.7316C42.8256 49.7316 40.9402 51.3337 40.9402 53.3029C40.9402 55.272 42.8258 56.8741 45.1433 56.8741C47.177 56.8741 48.8776 55.6405 49.2639 54.0077C51.1145 53.2283 52.5714 51.6751 53.2037 49.7101C55.036 49.2929 56.408 47.6516 56.408 45.6947V41.1707C56.408 39.2815 55.1293 37.6865 53.3922 37.2028C52.9834 34.683 51.745 32.3708 49.8467 30.6234C47.7285 28.6735 44.9755 27.5997 42.0949 27.5997C36.4264 27.5997 31.6851 31.6828 30.7964 37.203C29.0599 37.6869 27.7817 39.2818 27.7817 41.1705V45.6945C27.7817 47.9658 29.6296 49.8136 31.9009 49.8136C34.1721 49.8136 36.02 47.9658 36.02 45.6945V41.1705C36.02 39.3994 34.8963 37.886 33.3246 37.3052C34.138 33.1487 37.7715 30.1089 42.0949 30.1089C46.3635 30.1089 50.0427 33.2018 50.8619 37.3065C49.2918 37.8881 48.1698 39.4006 48.1698 41.1705V45.6945C48.1698 47.3686 49.1742 48.8117 50.6117 49.4553C50.2129 50.3124 49.5568 51.0124 48.7478 51.468V51.468ZM45.1433 54.3651C44.145 54.3651 43.4494 53.8054 43.4494 53.3031C43.4494 52.8007 44.145 52.2409 45.1433 52.2409C46.1416 52.2409 46.8374 52.8007 46.8374 53.3031C46.8374 53.8054 46.1415 54.3651 45.1433 54.3651ZM33.5108 45.6948C33.5108 46.5826 32.7886 47.3048 31.9009 47.3048C31.0131 47.3048 30.2909 46.5826 30.2909 45.6948V41.1708C30.2909 40.2831 31.0131 39.5609 31.9009 39.5609C32.7886 39.5609 33.5108 40.2831 33.5108 41.1708V45.6948ZM50.679 41.1708C50.679 40.2831 51.4012 39.5609 52.2889 39.5609C53.1766 39.5609 53.8988 40.2831 53.8988 41.1708V45.6948C53.8988 46.5826 53.1766 47.3048 52.2889 47.3048C51.4012 47.3048 50.679 46.5826 50.679 45.6948V41.1708Z" fill="#00C6EE"/>
<path d="M59.6682 34.7102H69.6614C70.3542 34.7102 70.916 34.1486 70.916 33.4556C70.916 32.7626 70.3542 32.201 69.6614 32.201H59.6682C58.9753 32.201 58.4136 32.7626 58.4136 33.4556C58.4136 34.1486 58.9753 34.7102 59.6682 34.7102Z" fill="#00C6EE"/>
<path d="M59.6682 40.3266H67.3737C68.0665 40.3266 68.6283 39.765 68.6283 39.072C68.6283 38.379 68.0665 37.8174 67.3737 37.8174H59.6682C58.9753 37.8174 58.4136 38.379 58.4136 39.072C58.4136 39.765 58.9753 40.3266 59.6682 40.3266Z" fill="#00C6EE"/>
<path d="M12.3429 18.6831C13.3759 18.6831 14.2134 17.8457 14.2134 16.8126C14.2134 15.7796 13.3759 14.9421 12.3429 14.9421C11.3099 14.9421 10.4724 15.7796 10.4724 16.8126C10.4724 17.8457 11.3099 18.6831 12.3429 18.6831Z" fill="#00C6EE"/>
<path d="M18.0079 18.6831C19.041 18.6831 19.8784 17.8457 19.8784 16.8126C19.8784 15.7796 19.041 14.9421 18.0079 14.9421C16.9749 14.9421 16.1375 15.7796 16.1375 16.8126C16.1375 17.8457 16.9749 18.6831 18.0079 18.6831Z" fill="#00C6EE"/>
<path d="M23.6398 18.6831C24.6728 18.6831 25.5102 17.8457 25.5102 16.8126C25.5102 15.7796 24.6728 14.9421 23.6398 14.9421C22.6067 14.9421 21.7693 15.7796 21.7693 16.8126C21.7693 17.8457 22.6067 18.6831 23.6398 18.6831Z" fill="#00C6EE"/>
</svg>
