<svg width="84" height="84" viewBox="0 0 84 84" fill="none" xmlns="http://www.w3.org/2000/svg">
<g clip-path="url(#clip0_89_848)">
<path d="M82.7039 16.949H75.8645C76.0631 16.6702 76.2432 16.3773 76.4009 16.0703C77.3058 14.3028 77.4282 12.2213 76.7367 10.3589L74.6641 4.78844C73.9733 2.92799 72.5217 1.4322 70.683 0.684939C68.8424 -0.0629586 66.7577 -0.00335762 64.9626 0.849002L48.5601 8.6388C47.7494 8.05945 46.758 7.71722 45.6877 7.71722H38.3126C37.2423 7.71722 36.2503 8.06009 35.4396 8.63944L19.0377 0.848361C17.2427 -0.00335755 15.1579 -0.0629586 13.3173 0.684939C11.4787 1.4322 10.0271 2.92799 9.33622 4.7878L7.26364 10.3595C6.57214 12.2213 6.69455 14.3028 7.6001 16.0703C7.75711 16.3773 7.93784 16.6708 8.13651 16.949H1.29648C0.58063 16.949 0 17.529 0 18.2455V27.5785C0 28.2943 0.58063 28.875 1.29648 28.875C2.01234 28.875 2.59297 28.2943 2.59297 27.5785V19.5413H11.5979C11.7421 19.5919 11.8882 19.6387 12.0362 19.6797L22.9201 22.6758C20.5015 26.382 18.368 30.2804 16.5415 34.3198H2.59297V32.7638C2.59297 32.0479 2.01234 31.4679 1.29648 31.4679C0.58063 31.4679 0 32.0479 0 32.7638V35.6163C0 36.3321 0.58063 36.9128 1.29648 36.9128H5.91973V82.8101C5.91973 83.5266 6.50036 84.1066 7.21622 84.1066H76.7841C77.5 84.1066 78.0806 83.5266 78.0806 82.8101V75.2824C78.0806 74.5666 77.5 73.9859 76.7841 73.9859C76.0676 73.9859 75.4876 74.5666 75.4876 75.2824V81.5142H49.7778V37.71C53.45 44.6654 55.9359 52.2283 57.0799 60.0425C57.1555 60.5597 57.5349 60.9807 58.0418 61.1102C58.1482 61.1377 58.2559 61.1505 58.3629 61.1505C58.7635 61.1505 59.1493 60.9647 59.3979 60.6346C61.2616 58.1622 62.9945 55.5154 64.5589 52.7519C67.1787 54.5361 69.7224 56.5254 72.1359 58.6787C72.5428 59.0414 73.1337 59.1113 73.6137 58.8524C74.0937 58.5941 74.361 58.0628 74.2815 57.5232C73.2465 50.4627 71.3169 43.5195 68.5816 36.9128H75.487V70.0965C75.487 70.813 76.0676 71.393 76.7835 71.393C77.5 71.393 78.08 70.813 78.08 70.0965V36.9128H82.7039C83.4197 36.9128 83.9997 36.3321 83.9997 35.6163V18.2455C84.0003 17.529 83.4204 16.949 82.7039 16.949V16.949ZM66.0745 3.19075C67.2313 2.64216 68.5207 2.60499 69.707 3.08693C70.8913 3.56822 71.7885 4.493 72.2339 5.69207L74.3059 11.2619C74.7519 12.4616 74.6757 13.7497 74.0925 14.8886C73.5099 16.0268 72.5095 16.8407 71.2765 17.1797L50.6398 22.861V16.6305C55.2784 13.7901 66.8423 7.93192 69.7204 11.9944C70.1338 12.5782 70.9426 12.7173 71.5271 12.3033C72.1115 11.8893 72.25 11.0799 71.836 10.496C69.6147 7.36026 64.9338 7.20773 57.922 10.0436C55.0336 11.2113 52.3669 12.6366 50.6398 13.6254V12.6686C50.6398 11.9745 50.4956 11.3132 50.2367 10.7127L66.0745 3.19075ZM38.3126 10.3096H45.6877C46.9887 10.3096 48.0468 11.3683 48.0468 12.6686V23.3846C48.0468 24.6856 46.9887 25.7437 45.6877 25.7437H38.3126C37.0116 25.7437 35.9535 24.6856 35.9535 23.3846V12.6686C35.9535 11.3676 37.0116 10.3096 38.3126 10.3096V10.3096ZM36.1336 34.3192C37.3737 32.2588 38.7234 30.2618 40.1756 28.3366H43.8235C45.2763 30.2618 46.626 32.2588 47.8654 34.3192H36.1336ZM9.90788 14.8886C9.32468 13.7497 9.24842 12.4616 9.69383 11.2625L11.767 5.69143C12.2118 4.493 13.109 3.56822 14.2934 3.08693C15.479 2.60499 16.7691 2.64216 17.9252 3.19075L33.7637 10.7139C33.5048 11.3138 33.3606 11.9745 33.3606 12.6692V13.6998C31.6392 12.709 28.9123 11.2414 25.9502 10.0436C18.939 7.20773 14.2575 7.36026 12.0362 10.496C11.6222 11.0799 11.7606 11.8893 12.3451 12.3033C12.9296 12.7173 13.7384 12.5789 14.1517 11.9944C17.0568 7.89346 28.811 13.901 33.3606 16.7093V22.861L12.7245 17.1803C11.4908 16.8407 10.4904 16.0268 9.90788 14.8886ZM33.9425 25.7103C34.5878 26.9177 35.7183 27.8284 37.0725 28.179C31.0092 36.6385 26.8352 46.3586 24.8774 56.5754C23.5001 54.563 22.2126 52.4539 21.0341 50.2756C20.8617 49.9564 20.5643 49.7244 20.2125 49.6354C19.8613 49.5463 19.4889 49.6084 19.1858 49.8065C17.0267 51.2145 14.9124 52.759 12.8706 54.4175C14.9733 43.3805 19.3178 32.7381 25.5477 23.3994L33.9425 25.7103ZM8.5127 36.9128H15.4187C12.6835 43.5195 10.7538 50.4621 9.71818 57.5232C9.63935 58.0628 9.90595 58.5941 10.386 58.8524C10.8666 59.1107 11.4569 59.0414 11.8638 58.6787C14.2773 56.5254 16.821 54.5361 19.4415 52.7519C21.0059 55.5154 22.7381 58.1615 24.6024 60.6346C24.8511 60.9647 25.2369 61.1512 25.6374 61.1512C25.7445 61.1512 25.8521 61.1377 25.9585 61.1102C26.4654 60.9807 26.8442 60.5597 26.9198 60.0425C28.0644 52.2283 30.5504 44.6648 34.2219 37.7094V81.5142H8.5127V36.9128ZM36.8149 81.5142V36.9128H47.1855V81.5142H36.8149ZM64.8146 49.8065C64.5114 49.6084 64.1384 49.5469 63.7879 49.636C63.4367 49.7251 63.1387 49.9571 62.9663 50.2756C61.7877 52.4539 60.5002 54.5637 59.123 56.5754C57.1651 46.3579 52.9911 36.6385 46.9272 28.1796C48.2814 27.8297 49.4125 26.9184 50.0579 25.7103L58.4546 23.3987C64.6832 32.7394 69.0277 43.3817 71.1304 54.4175C69.0879 52.759 66.9737 51.2145 64.8146 49.8065V49.8065ZM81.4074 34.3198H67.4594C65.633 30.2804 63.4995 26.382 61.0815 22.6758L71.9641 19.6797C72.1122 19.6387 72.2583 19.5919 72.4025 19.5413H81.4074V34.3198Z" fill="#00C6EE"/>
</g>
<defs>
<clipPath id="clip0_89_848">
<rect width="84" height="84" fill="white"/>
</clipPath>
</defs>
</svg>
