<svg width="84" height="84" viewBox="0 0 84 84" fill="none" xmlns="http://www.w3.org/2000/svg">
<g clip-path="url(#clip0_89_860)">
<path d="M71.6986 12.3014C63.7657 4.36882 53.2186 0 42 0C30.7814 0 20.2343 4.36882 12.3014 12.3014C4.36882 20.2343 0 30.7814 0 42C0 53.2186 4.36882 63.7657 12.3014 71.6986C20.2343 79.6312 30.7814 84 42 84C53.2186 84 63.7657 79.6312 71.6986 71.6986C79.6312 63.7657 84 53.2186 84 42C84 30.7814 79.6312 20.2343 71.6986 12.3014ZM69.9584 69.9584C62.4904 77.4263 52.5614 81.5391 42 81.5391C31.4386 81.5391 21.5096 77.4263 14.0416 69.9584C6.57366 62.4904 2.46094 52.5614 2.46094 42C2.46094 31.4386 6.57366 21.5096 14.0416 14.0416C21.5096 6.57366 31.4386 2.46094 42 2.46094C52.5614 2.46094 62.4904 6.57366 69.9584 14.0416C77.4263 21.5096 81.5391 31.4386 81.5391 42C81.5391 52.5614 77.4263 62.4904 69.9584 69.9584Z" fill="#00C6EE"/>
<path d="M42 13.1514C41.3205 13.1514 40.7695 13.7023 40.7695 14.3818V19.6423C40.7695 20.3219 41.3205 20.8728 42 20.8728C42.6795 20.8728 43.2305 20.322 43.2305 19.6425V14.3818C43.2305 13.7023 42.6795 13.1514 42 13.1514Z" fill="#00C6EE"/>
<path d="M42 63.127C41.3205 63.127 40.7695 63.6779 40.7695 64.3574V69.6179C40.7695 70.2975 41.3205 70.8484 42 70.8484C42.6795 70.8484 43.2305 70.2975 43.2305 69.6179V64.3574C43.2305 63.6779 42.6795 63.127 42 63.127Z" fill="#00C6EE"/>
<path d="M69.6182 40.7695H64.3577C63.6781 40.7695 63.1272 41.3205 63.1272 42C63.1272 42.6795 63.6781 43.2305 64.3577 43.2305H69.6182C70.2977 43.2305 70.8486 42.6795 70.8486 42C70.8486 41.3205 70.2977 40.7695 69.6182 40.7695Z" fill="#00C6EE"/>
<path d="M19.6423 40.7695H14.3818C13.7023 40.7695 13.1514 41.3205 13.1514 42C13.1514 42.6795 13.7023 43.2305 14.3818 43.2305H19.6423C20.3219 43.2305 20.8728 42.6795 20.8728 42C20.8728 41.3205 20.3219 40.7695 19.6423 40.7695Z" fill="#00C6EE"/>
<path d="M20.9753 28.4406L18.6974 27.1255C18.1088 26.7855 17.3564 26.9873 17.0166 27.5758C16.6768 28.1643 16.8785 28.9169 17.467 29.2566L19.7448 30.5718C19.9386 30.6836 20.1502 30.7368 20.3589 30.7368C20.7841 30.7368 21.1977 30.516 21.4256 30.1214C21.7654 29.5329 21.5638 28.7804 20.9753 28.4406Z" fill="#00C6EE"/>
<path d="M66.5331 54.7434L64.2553 53.4283C63.6668 53.0884 62.9143 53.2902 62.5745 53.8787C62.2347 54.4672 62.4363 55.2197 63.0248 55.5595L65.3027 56.8746C65.4964 56.9865 65.7081 57.0397 65.9168 57.0397C66.342 57.0397 66.7556 56.8188 66.9835 56.4243C67.3233 55.8358 67.1216 55.0832 66.5331 54.7434Z" fill="#00C6EE"/>
<path d="M56.4242 17.0166C55.8357 16.6766 55.0831 16.8784 54.7434 17.4669L53.4282 19.7448C53.0885 20.3333 53.2901 21.0858 53.8786 21.4256C54.0723 21.5375 54.284 21.5906 54.4927 21.5906C54.9179 21.5906 55.3315 21.3698 55.5594 20.9752L56.8745 18.6974C57.2143 18.1089 57.0127 17.3563 56.4242 17.0166Z" fill="#00C6EE"/>
<path d="M30.1214 62.5744C29.5328 62.2345 28.7802 62.4363 28.4406 63.0248L27.1255 65.3026C26.7857 65.8911 26.9874 66.6437 27.5759 66.9834C27.7696 67.0953 27.9813 67.1485 28.1899 67.1485C28.6152 67.1485 29.0288 66.9277 29.2567 66.5331L30.5718 64.2552C30.9116 63.6668 30.7099 62.9142 30.1214 62.5744Z" fill="#00C6EE"/>
<path d="M66.9835 27.5756C66.6437 26.9871 65.891 26.7855 65.3027 27.1253L63.0248 28.4404C62.4363 28.7802 62.2347 29.5327 62.5745 30.1212C62.8024 30.5159 63.216 30.7366 63.6412 30.7366C63.8499 30.7366 64.0615 30.6834 64.2553 30.5716L66.5331 29.2564C67.1216 28.9167 67.3233 28.1641 66.9835 27.5756Z" fill="#00C6EE"/>
<path d="M21.4256 53.8786C21.0859 53.2899 20.3333 53.0883 19.7448 53.4282L17.467 54.7434C16.8785 55.0831 16.6768 55.8357 17.0166 56.4242C17.2445 56.8189 17.6581 57.0396 18.0833 57.0396C18.292 57.0396 18.5037 56.9864 18.6974 56.8745L20.9753 55.5594C21.5638 55.2198 21.7654 54.4672 21.4256 53.8786Z" fill="#00C6EE"/>
<path d="M30.5718 19.7448L29.2567 17.467C28.9169 16.8783 28.1643 16.6767 27.5759 17.0166C26.9874 17.3564 26.7857 18.1089 27.1255 18.6974L28.4406 20.9753C28.6685 21.37 29.0821 21.5907 29.5074 21.5907C29.716 21.5907 29.9277 21.5375 30.1214 21.4256C30.7099 21.0858 30.9116 20.3333 30.5718 19.7448Z" fill="#00C6EE"/>
<path d="M56.8745 65.3026L55.5594 63.0248C55.2198 62.4363 54.4671 62.2345 53.8786 62.5744C53.2901 62.9142 53.0885 63.6668 53.4282 64.2552L54.7434 66.5331C54.9712 66.9278 55.3848 67.1485 55.8101 67.1485C56.0188 67.1485 56.2304 67.0953 56.4242 66.9834C57.0127 66.6437 57.2143 65.8911 56.8745 65.3026Z" fill="#00C6EE"/>
<path d="M60.3129 39.1826C60.2098 38.5111 59.5827 38.0502 58.9097 38.1536L45.4282 40.2276C44.7849 38.9883 43.4901 38.1393 42.0001 38.1393C41.3837 38.1393 40.801 38.2853 40.2835 38.5434L27.0885 25.3483C26.6079 24.8678 25.8288 24.8678 25.3484 25.3483C24.8679 25.8289 24.8679 26.608 25.3484 27.0884L38.5435 40.2834C38.2854 40.8009 38.1394 41.3836 38.1394 42C38.1394 44.1289 39.8714 45.8607 42.0001 45.8607C43.9039 45.8607 45.4892 44.4752 45.8033 42.6599L59.2841 40.586C59.9556 40.4824 60.4163 39.8542 60.3129 39.1826ZM42 43.3998C41.228 43.3998 40.6002 42.7718 40.6002 42C40.6002 41.2283 41.2282 40.6002 42 40.6002C42.7717 40.6002 43.3997 41.2283 43.3997 42C43.3997 42.7718 42.7719 43.3998 42 43.3998Z" fill="#00C6EE"/>
<path d="M64.1067 16.0359C57.6 10.4847 49.2948 7.6013 40.7201 7.91926C32.0974 8.23803 23.9864 11.776 17.8813 17.8811C11.7762 23.9862 8.23816 32.0973 7.91939 40.7199C7.60226 49.2943 10.4848 57.6 16.0361 64.1066C16.2794 64.3919 16.6249 64.5384 16.9727 64.5384C17.2552 64.5384 17.539 64.4417 17.7707 64.244C18.2876 63.803 18.3492 63.0264 17.9082 62.5094C12.7584 56.4732 10.0842 48.7674 10.3785 40.8108C10.6743 32.811 13.9569 25.2858 19.6213 19.6212C25.2857 13.9566 32.8111 10.6742 40.811 10.3784C48.768 10.0842 56.4734 12.7583 62.5095 17.908C63.0263 18.349 63.8032 18.2875 64.2442 17.7706C64.6852 17.2536 64.6237 16.4769 64.1067 16.0359Z" fill="#00C6EE"/>
<path d="M67.9641 19.8932C67.5231 19.3763 66.7465 19.3146 66.2295 19.7557C65.7126 20.1967 65.651 20.9734 66.092 21.4904C71.2418 27.5266 73.9158 35.2326 73.6217 43.1889C73.3259 51.1888 70.0433 58.714 64.3789 64.3786C58.7145 70.0432 51.1891 73.3256 43.1892 73.6214C35.2335 73.9159 27.5269 71.2417 21.4907 66.0917C20.9739 65.6507 20.197 65.7123 19.756 66.2292C19.315 66.7462 19.3766 67.5229 19.8935 67.9639C26.0765 73.239 33.8836 76.1041 42.0026 76.1041C42.4275 76.1041 42.8537 76.0963 43.2803 76.0805C51.9029 75.7618 60.014 72.2237 66.1191 66.1186C72.2242 60.0136 75.7622 51.9025 76.081 43.2798C76.3979 34.7056 73.5154 26.3999 67.9641 19.8932Z" fill="#00C6EE"/>
</g>
<defs>
<clipPath id="clip0_89_860">
<rect width="84" height="84" fill="white"/>
</clipPath>
</defs>
</svg>
