<svg width="48" height="84" viewBox="0 0 48 84" fill="none" xmlns="http://www.w3.org/2000/svg">
<path d="M10.353 57.4663C9.69705 57.6491 9.31347 58.329 9.49624 58.9849L13.1292 72.0231C13.4175 73.0577 14.3328 73.7528 15.4068 73.7528C16.4807 73.7528 17.396 73.0577 17.6843 72.0231L21.3173 58.9849C21.5 58.329 21.1166 57.6491 20.4605 57.4663C19.8043 57.2831 19.1247 57.6671 18.942 58.3231L15.4066 71.0103L11.8714 58.3231C11.6886 57.6671 11.0091 57.2837 10.353 57.4663V57.4663Z" fill="#00C6EE"/>
<path d="M23.9392 58.6617V72.5197C23.9392 73.2006 24.4911 73.7487 25.1721 73.7487C25.8532 73.7487 26.4051 73.1929 26.4051 72.5119V58.6617C26.4051 57.9808 25.853 57.4288 25.1721 57.4288C24.4913 57.4288 23.9392 57.9808 23.9392 58.6617V58.6617Z" fill="#00C6EE"/>
<path d="M30.8157 57.4086C30.1348 57.4086 29.5828 57.9607 29.5828 58.6415V72.5197C29.5828 73.2006 30.1348 73.7527 30.8157 73.7527C31.4965 73.7527 32.0486 73.2006 32.0486 72.5197V67.8102H33.3483C36.2161 67.8102 38.5491 65.477 38.5491 62.6092C38.5491 59.7416 36.216 57.4084 33.3483 57.4084H30.8157V57.4086ZM36.0834 62.6094C36.0834 64.1176 34.8566 65.3445 33.3483 65.3445H32.0486V59.8743H33.3483C34.8564 59.8743 36.0834 61.1013 36.0834 62.6094Z" fill="#00C6EE"/>
<path d="M32.8287 37.0834L28.8746 36.1941C28.7524 36.1667 28.6457 36.0891 28.5817 35.9814L26.5142 32.4957C25.9823 31.5991 25.0426 31.0639 24.0001 31.0639C22.9577 31.0639 22.0179 31.5992 21.486 32.4957L19.4185 35.9815C19.3547 36.0893 19.2479 36.1667 19.1257 36.1943L15.1717 37.0835C14.1547 37.3122 13.3552 38.0407 13.033 39.0321C12.711 40.0235 12.9295 41.0827 13.6179 41.8656L16.2941 44.909C16.3768 45.003 16.4176 45.1287 16.406 45.2533L16.0298 49.2885C15.933 50.3263 16.3788 51.3118 17.222 51.9246C18.0653 52.5374 19.1404 52.6567 20.0976 52.244L23.819 50.6392C23.934 50.5895 24.0661 50.5896 24.1811 50.6392L27.9025 52.244C28.8472 52.6512 29.9461 52.5292 30.778 51.9246C31.6213 51.3118 32.0671 50.3263 31.9703 49.2885L31.5941 45.2533C31.5824 45.1287 31.6233 45.003 31.706 44.909L34.3822 41.8656C35.0706 41.0829 35.2891 40.0235 34.967 39.0321C34.6452 38.0405 33.8455 37.3121 32.8287 37.0834V37.0834ZM32.5307 40.2371L29.8545 43.2805C29.3256 43.8819 29.0649 44.6844 29.1392 45.482L29.5154 49.5172C29.5474 49.8586 29.1948 50.116 28.879 49.9795L25.1576 48.3748C24.4259 48.0591 23.5744 48.0593 22.8427 48.3748L19.1212 49.9795C18.8056 50.116 18.453 49.8586 18.4848 49.5172L18.861 45.482C18.9353 44.6844 18.6746 43.8819 18.1457 43.2805L15.4695 40.2371C15.2423 39.9787 15.3783 39.5641 15.7125 39.489L19.6664 38.5998C20.448 38.4241 21.1307 37.9281 21.5392 37.2392L23.6067 33.7535C23.7818 33.4582 24.218 33.4581 24.3934 33.7535L26.4607 37.2391C26.8694 37.9283 27.5521 38.4242 28.3335 38.5998L32.2874 39.489C32.6218 39.5641 32.7581 39.9787 32.5307 40.2371V40.2371Z" fill="#00C6EE"/>
<path d="M42.8763 16.7655H33.852L35.6131 13.2208C35.9159 12.611 35.6672 11.8711 35.0575 11.5682C34.448 11.265 33.7078 11.5139 33.4049 12.1237L31.0989 16.7654H26.5527L25.3767 14.3983L31.3049 2.4657H38.2033L35.6032 7.69913C35.3004 8.30895 35.5491 9.04887 36.1589 9.35173C36.7684 9.65475 37.5086 9.40603 37.8115 8.79621L41.2967 1.78139C41.6967 0.97568 41.0903 0 40.1924 0H30.5407C30.0727 0 29.645 0.265125 29.4366 0.684305L23.9999 11.6274L18.5632 0.684305C18.3548 0.265125 17.9271 0 17.4591 0H7.80742C6.90951 0 6.30297 0.97568 6.70328 1.78139L14.1476 16.7655H5.12352C2.35382 16.7655 0.100586 19.0188 0.100586 21.7885V32.0294C0.100586 32.7103 0.652656 33.2624 1.33352 33.2624C2.01437 33.2624 2.56644 32.7103 2.56644 32.0294V21.7885C2.56644 20.3785 3.71357 19.2312 5.12369 19.2312H15.3728L17.1851 22.8788H16.3031C15.6222 22.8788 15.0701 23.4308 15.0701 24.1118C15.0701 24.7926 15.622 25.3447 16.3031 25.3447H31.697C32.3779 25.3447 32.93 24.7926 32.93 24.1118C32.93 23.4309 32.3781 22.8788 31.697 22.8788H29.59L27.7778 19.2312H42.8763C44.2862 19.2312 45.4335 20.3784 45.4335 21.7885V64.155C45.4335 64.8359 45.9854 65.3879 46.6664 65.3879C47.3473 65.3879 47.8994 64.8359 47.8994 64.155V21.7885C47.8992 19.0188 45.6458 16.7655 42.8763 16.7655V16.7655ZM19.9382 22.8788L9.79668 2.4657H16.695L26.8365 22.8788H19.9382Z" fill="#00C6EE"/>
<path d="M46.6664 67.8536C45.9856 67.8536 45.4335 68.4055 45.4335 69.0865V78.977C45.4335 80.3872 44.2864 81.5343 42.8763 81.5343H5.12369C3.71373 81.5343 2.56645 80.3872 2.56645 78.977V36.961C2.56645 36.2801 2.01454 35.728 1.33352 35.728C0.652492 35.728 0.100586 36.2801 0.100586 36.961V78.977C0.100586 81.7467 2.35382 84 5.12352 84H42.8763C45.646 84 47.8992 81.7467 47.8992 78.977V69.0865C47.8994 68.4055 47.3473 67.8536 46.6664 67.8536V67.8536Z" fill="#00C6EE"/>
</svg>
