<svg width="168" height="34" viewBox="0 0 168 34" fill="none" xmlns="http://www.w3.org/2000/svg">
<g clip-path="url(#clip0_103_3542)">
<path d="M10.7153 14.2864L17.2023 7.68565L23.6919 14.2918L27.4643 10.4489L17.2023 0L6.94019 10.4463L10.7153 14.2864Z" fill="#2F71FF" fill-opacity="0.2"/>
<path d="M0.499268 17.0005L4.27296 13.1591L8.04665 17.0005L4.27296 20.842L0.499268 17.0005Z" fill="#2F71FF" fill-opacity="0.2"/>
<path d="M10.7152 19.7136L17.2022 26.3171L23.6918 19.7109L27.4669 23.5484L27.4642 23.5511L17.2022 34L6.94009 23.5564L6.93481 23.5511L10.7152 19.7136Z" fill="#2F71FF" fill-opacity="0.2"/>
<path d="M26.3513 17.0015L30.125 13.1601L33.8987 17.0015L30.125 20.8429L26.3513 17.0015Z" fill="#2F71FF" fill-opacity="0.2"/>
<path d="M21.0301 16.9986L17.2022 13.0994L14.3716 15.9809L14.0445 16.3112L13.3744 16.9933L13.3691 16.9986L13.3744 17.0067L17.2022 20.9005L21.0301 17.0013L21.0327 16.9986H21.0301Z" fill="#2F71FF" fill-opacity="0.2"/>
<path d="M39.7866 8.23883H47.9963C50.0329 8.23883 51.5735 8.77591 52.6182 9.85008C53.0117 10.2469 53.322 10.7209 53.5302 11.2435C53.7383 11.766 53.84 12.3262 53.829 12.89V12.941C53.8361 13.4028 53.7729 13.863 53.6417 14.3052C53.5249 14.6858 53.3552 15.0475 53.1379 15.3793C52.9353 15.6922 52.6901 15.9743 52.4098 16.2172C52.1358 16.4572 51.8358 16.6644 51.5155 16.8348C52.4392 17.1624 53.2698 17.7156 53.9346 18.4461C54.522 19.1264 54.8157 20.0663 54.8157 21.2658V21.3168C54.8324 22.0659 54.6722 22.8082 54.3487 23.4812C54.0353 24.1014 53.5757 24.6328 53.0112 25.028C52.373 25.4636 51.6624 25.7775 50.914 25.9545C50.0248 26.1691 49.1132 26.2728 48.1994 26.2633H39.7866V8.23883ZM47.1732 15.527C47.8835 15.562 48.5903 15.4064 49.223 15.0759C49.4697 14.9292 49.6711 14.7151 49.8045 14.4579C49.9378 14.2006 49.9977 13.9105 49.9775 13.6204V13.5694C49.9905 13.3021 49.9372 13.0357 49.8224 12.7949C49.7076 12.5541 49.535 12.3467 49.3206 12.1918C48.8827 11.8749 48.2504 11.7164 47.4238 11.7164H43.5828V15.527H47.1732ZM48.21 22.7911C48.9176 22.8314 49.622 22.6666 50.2413 22.3158C50.4825 22.158 50.6778 21.9372 50.8068 21.6765C50.9358 21.4158 50.9937 21.1247 50.9747 20.8334V20.7824C50.9842 20.5055 50.9268 20.2306 50.8077 19.9815C50.6886 19.7324 50.5113 19.5169 50.2914 19.3538C49.8376 18.9957 49.1043 18.8167 48.0912 18.8167H43.5828V22.7911H48.21Z" fill="#2F71FF" fill-opacity="0.2"/>
<path d="M59.7065 8.23883H63.603V26.2687H59.7065V8.23883Z" fill="#2F71FF" fill-opacity="0.2"/>
<path d="M69.499 8.23883H73.0921L81.3967 19.335V8.23883H85.243V26.2687H81.9269L73.3506 14.8073V26.2687H69.499V8.23883Z" fill="#2F71FF" fill-opacity="0.2"/>
<path d="M97.0406 8.10992H100.628L108.218 26.2687H104.15L102.53 22.2245H95.0409L93.4212 26.2687H89.4482L97.0406 8.10992ZM101.14 18.7227L98.7817 12.8738L96.4338 18.7227H101.14Z" fill="#2F71FF" fill-opacity="0.2"/>
<path d="M112.431 8.23883H116.024L124.323 19.335V8.23883H128.17V26.2687H124.854L116.277 14.8073V26.2687H112.431V8.23883Z" fill="#2F71FF" fill-opacity="0.2"/>
<path d="M142.194 26.5856C140.952 26.5964 139.721 26.3516 138.574 25.8659C137.495 25.4122 136.516 24.7432 135.694 23.8983C134.873 23.0534 134.226 22.0496 133.791 20.9462C133.333 19.792 133.101 18.5577 133.108 17.3129V17.2618C133.088 14.808 134.015 12.4442 135.691 10.6799C136.515 9.81807 137.502 9.13482 138.593 8.6712C139.779 8.17107 141.052 7.92165 142.336 7.93808C143.095 7.93231 143.854 8.00156 144.6 8.14486C145.238 8.26776 145.862 8.45764 146.462 8.71148C147.007 8.94474 147.524 9.23833 148.005 9.58692C148.475 9.92691 148.916 10.306 149.324 10.7202L146.847 13.6312C146.214 13.0367 145.504 12.5334 144.737 12.1354C143.983 11.7685 143.156 11.5846 142.32 11.5983C141.625 11.5907 140.936 11.7339 140.299 12.0181C139.663 12.3024 139.093 12.7214 138.627 13.2471C138.166 13.7716 137.804 14.379 137.561 15.0383C137.307 15.735 137.179 16.473 137.184 17.2162V17.2672C137.182 18.0093 137.309 18.746 137.561 19.4424C137.801 20.1041 138.159 20.7149 138.617 21.2443C139.078 21.7766 139.647 22.2017 140.284 22.4908C140.921 22.7799 141.612 22.9263 142.31 22.92C143.198 22.9485 144.08 22.7539 144.877 22.3534C145.635 21.9324 146.337 21.4124 146.963 20.8066L149.443 23.3577C149.005 23.8415 148.532 24.2904 148.026 24.7004C147.53 25.0999 146.991 25.4413 146.42 25.7182C145.811 26.0099 145.17 26.2254 144.51 26.36C143.747 26.5156 142.971 26.5912 142.194 26.5856Z" fill="#2F71FF" fill-opacity="0.2"/>
<path d="M154.041 8.23883H167.371V11.7675H157.874V15.425H166.237V18.9536H157.888V22.7401H167.503V26.2687H154.049L154.041 8.23883Z" fill="#2F71FF" fill-opacity="0.2"/>
</g>
<defs>
<clipPath id="clip0_103_3542">
<rect width="167" height="34" fill="white" transform="translate(0.500488)"/>
</clipPath>
</defs>
</svg>
