<svg width="146" height="32" viewBox="0 0 146 32" fill="none" xmlns="http://www.w3.org/2000/svg">
<path d="M145.874 18.2101C145.963 13.6597 142.528 9.92841 138.126 9.8374C133.723 9.7464 130.113 13.2957 130.025 17.8461C129.937 22.3965 133.371 26.1278 137.774 26.2188H137.95C140.591 26.3098 143.145 25.1267 144.73 22.9425L142.793 21.5774C141.648 23.1245 139.887 24.0346 137.95 23.9436C135.308 23.9436 133.107 22.0324 132.578 19.3932H145.786C145.874 18.9382 145.874 18.5741 145.874 18.2101ZM137.95 12.4766C140.591 12.4766 142.793 14.3878 143.321 17.027H132.578C133.107 14.3878 135.396 12.4766 137.95 12.4766ZM74.1108 10.3835H76.4883V25.6727H74.1108V10.3835Z" fill="#2F71FF" fill-opacity="0.2"/>
<path d="M75.3433 8.19937C76.2186 8.19937 76.9282 7.46595 76.9282 6.56123C76.9282 5.65651 76.2186 4.9231 75.3433 4.9231C74.4679 4.9231 73.7583 5.65651 73.7583 6.56123C73.7583 7.46595 74.4679 8.19937 75.3433 8.19937Z" fill="#2F71FF" fill-opacity="0.2"/>
<path d="M63.5445 9.83744C59.1418 9.83744 55.6196 13.4777 55.6196 18.0281C55.6196 22.5785 59.1418 26.2188 63.5445 26.2188C67.9471 26.2188 71.4693 22.5785 71.4693 18.0281C71.4693 13.4777 67.9471 9.83744 63.5445 9.83744ZM63.5445 23.7616C60.4626 23.7616 57.909 21.2134 57.909 18.0281C57.909 14.8429 60.3745 12.2036 63.4564 12.2036C66.5383 12.2036 69.0918 14.7519 69.0918 17.9371V18.0281C69.0918 21.2134 66.6263 23.7616 63.5445 23.7616ZM103.961 9.83744C99.5583 9.83744 96.0362 13.4777 96.0362 18.0281C96.0362 22.5785 99.5583 26.2188 103.961 26.2188C108.364 26.2188 111.886 22.5785 111.886 18.0281C111.886 13.4777 108.364 9.83744 103.961 9.83744ZM103.961 23.7616C100.879 23.7616 98.3256 21.2134 98.3256 18.0281C98.3256 14.8429 100.791 12.2036 103.873 12.2036C106.955 12.2036 109.508 14.7519 109.508 17.9371C109.508 21.2134 107.043 23.7616 103.961 23.7616ZM87.0547 9.83744C85.2937 9.74643 83.5326 10.5655 82.2999 11.9306V10.3835H79.9224V25.5818H82.2999V17.7551C82.2999 14.4788 84.149 12.1126 87.0547 12.1126C89.9605 12.1126 91.5455 14.3878 91.5455 17.9371V25.5818H93.9229V17.9371C93.9229 12.8407 91.2813 9.83744 87.0547 9.83744Z" fill="#2F71FF" fill-opacity="0.2"/>
<path d="M121.131 9.83742C119.37 9.74641 117.609 10.5655 116.376 11.9306V10.3835H113.999V25.5817H116.376V17.7551C116.376 14.4788 118.225 12.1126 121.131 12.1126C124.037 12.1126 125.622 14.3878 125.622 17.9371V25.5817H127.999V17.9371C127.911 12.8407 125.358 9.83742 121.131 9.83742ZM48.5749 9.56439C43.9961 9.56439 40.3859 13.3867 40.2979 18.0281C40.2098 22.6695 43.9961 26.4918 48.4869 26.5828C50.7763 26.5828 52.9776 25.5817 54.5626 23.8526L52.8895 22.1235C50.6882 24.6717 46.99 24.8537 44.5245 22.6695C42.059 20.4853 41.8829 16.572 43.9961 14.0238C46.1094 11.4756 49.8957 11.2935 52.3612 13.4777L52.8895 14.0238L54.5626 12.2946C52.9776 10.5655 50.8643 9.56439 48.5749 9.56439Z" fill="#2F71FF" fill-opacity="0.2"/>
<path d="M31.8558 16C31.8558 19.477 30.7593 22.8594 28.7321 25.6353C26.7049 28.4111 23.8575 30.4293 20.6208 31.3845C17.3841 32.3396 13.9342 32.1797 10.7933 30.9289C7.65247 29.6781 4.99154 27.4045 3.21328 24.4523C1.43502 21.5 0.636214 18.0297 0.937767 14.5667C1.23932 11.1036 2.62481 7.83632 4.88456 5.2592C7.14431 2.68208 10.1553 0.935451 13.4619 0.283646C16.7684 -0.368158 20.1905 0.110345 23.2103 1.64674L16.3656 16H31.8558Z" fill="#2F71FF" fill-opacity="0.2"/>
</svg>
