<svg width="128" height="35" viewBox="0 0 128 35" fill="none" xmlns="http://www.w3.org/2000/svg">
<g clip-path="url(#clip0_103_3593)">
<path d="M23.4208 12.9328C22.119 11.6554 20.3704 10.9402 18.5494 10.9402C16.7284 10.9402 14.9797 11.6554 13.6779 12.9328C13.0399 13.5721 12.5342 14.3318 12.19 15.168C11.8458 16.0042 11.6699 16.9004 11.6723 17.8051C11.6748 18.7098 11.8556 19.6051 12.2043 20.4394C12.553 21.2737 13.0628 22.0306 13.7043 22.6665C15.0023 23.9593 16.7556 24.6874 18.5848 24.6932C20.414 24.6989 22.1718 23.9819 23.4779 22.6973C23.5262 22.6489 23.7151 22.4418 24.049 22.0716L20.7984 18.8329C20.4646 19.2207 20.2889 19.4234 20.2669 19.441C19.8257 19.8812 19.2288 20.1283 18.6065 20.1283C17.9842 20.1283 17.3872 19.8812 16.9461 19.441C16.5082 19.0097 16.259 18.4216 16.2533 17.806C16.2475 17.1904 16.4856 16.5978 16.9153 16.1582C17.3588 15.7295 17.9521 15.4922 18.5679 15.4971C19.1838 15.5021 19.7732 15.7489 20.2098 16.1847L28.8984 24.8344C27.6982 26.5567 26.1027 27.9641 24.2465 28.938C22.3903 29.912 20.3279 30.4239 18.2331 30.4306C16.0326 30.4313 13.8684 29.867 11.9468 28.7913C10.0252 27.7157 8.40998 26.1646 7.25501 24.2856C6.10004 22.4066 5.44374 20.2624 5.34858 18.057C5.25343 15.8516 5.7226 13.6585 6.71142 11.6865C7.70023 9.71443 9.17579 8.0291 10.9976 6.79095C12.8194 5.55279 14.9268 4.80302 17.1192 4.61301C19.3116 4.423 21.516 4.79909 23.5225 5.70546C25.529 6.61182 27.2708 8.01831 28.5822 9.791C28.2015 10.2375 27.2219 11.3494 25.6435 13.1266L28.8633 16.3036L34.1696 10.333C32.8867 7.45414 30.8533 4.97588 28.2836 3.15951C25.714 1.34313 22.7033 0.25595 19.5692 0.0125952C16.435 -0.230759 13.2935 0.378731 10.4758 1.7768C7.65808 3.17487 5.26865 5.30971 3.55944 7.95623C1.85023 10.6027 0.884563 13.6629 0.764264 16.8139C0.643965 19.965 1.37349 23.0903 2.87592 25.8601C4.37835 28.63 6.59801 30.942 9.30085 32.5521C12.0037 34.1623 15.0896 35.011 18.2331 35.0088C22.6257 35.0088 26.2585 33.6384 29.8121 30.6024C31.8554 28.7969 33.4806 26.5651 34.5737 24.0633L23.4208 12.9328Z" fill="#2F71FF" fill-opacity="0.2"/>
<path d="M95.1923 19.864V28.2362H91.7441V19.6834C91.5534 18.6977 91.0243 17.8102 90.2487 17.1755C89.4731 16.5407 88.5003 16.1988 87.4993 16.2093C86.4984 16.2198 85.5329 16.582 84.7707 17.2328C84.0085 17.8837 83.4979 18.782 83.3278 19.7715V28.2538H79.8796V13.0297L82.5152 14.6953C83.9186 13.5049 85.6981 12.8537 87.536 12.8579C89.4579 12.8412 91.3151 13.5541 92.735 14.8534C94.155 16.1528 95.0328 17.9427 95.1923 19.864ZM59.0189 11.0997C57.8797 11.6876 56.8559 12.4773 55.9968 13.4307C55.3092 12.4425 54.3792 11.6489 53.2966 11.1266C52.2139 10.6043 51.0153 10.371 49.8165 10.4491C48.6177 10.5273 47.4592 10.9143 46.4531 11.5728C45.447 12.2314 44.6272 13.1391 44.0729 14.2082C43.5187 15.2774 43.2487 16.4719 43.2892 17.6764C43.3296 18.8808 43.679 20.0544 44.3037 21.0837C44.9284 22.1131 45.8072 22.9634 46.8552 23.5525C47.9033 24.1416 49.085 24.4496 50.2864 24.4467C51.4966 24.4568 52.6889 24.1532 53.7478 23.5654C54.1235 24.7872 54.719 25.9296 55.5048 26.9363C53.9001 27.8086 52.1028 28.2631 50.2776 28.2582C48.8515 28.2872 47.434 28.0304 46.1081 27.503C44.7822 26.9756 43.5745 26.1881 42.5558 25.1867C41.537 24.1852 40.7277 22.9899 40.1752 21.6708C39.6227 20.3517 39.3381 18.9352 39.3381 17.5044C39.3381 16.0736 39.6227 14.6572 40.1752 13.338C40.7277 12.0189 41.537 10.8236 42.5558 9.8222C43.5745 8.82074 44.7822 8.03325 46.1081 7.50583C47.434 6.97841 48.8515 6.72166 50.2776 6.75062C51.967 6.74685 53.634 7.1384 55.1461 7.89414C56.6582 8.64989 57.9737 9.749 58.9882 11.1041L59.0189 11.0997ZM64.1451 28.2538C62.6521 28.2364 61.1975 27.7764 59.9645 26.9317C58.7315 26.0869 57.7751 24.8952 57.2157 23.5065C56.6563 22.1177 56.5189 20.594 56.8208 19.1272C57.1227 17.6603 57.8503 16.3157 58.9122 15.2627C59.9741 14.2097 61.3228 13.4953 62.7885 13.2095C64.2542 12.9236 65.7714 13.079 67.1493 13.6561C68.5271 14.2333 69.704 15.2063 70.5318 16.4529C71.3597 17.6995 71.8014 19.1638 71.8015 20.6616C71.7958 21.6644 71.5932 22.6563 71.2053 23.5806C70.8174 24.5048 70.2518 25.3434 69.5409 26.0484C68.8299 26.7534 67.9875 27.311 67.0617 27.6894C66.1359 28.0679 65.1448 28.2596 64.1451 28.2538ZM64.1451 24.8785C64.9742 24.8681 65.7818 24.6119 66.4661 24.1423C67.1504 23.6726 67.681 23.0105 67.9911 22.239C68.3012 21.4676 68.377 20.6215 68.2089 19.807C68.0408 18.9925 67.6363 18.2461 67.0464 17.6616C66.4564 17.0771 65.7073 16.6807 64.8934 16.5223C64.0794 16.3638 63.2369 16.4503 62.4718 16.771C61.7067 17.0917 61.0533 17.6321 60.5936 18.3244C60.134 19.0167 59.8887 19.8298 59.8887 20.6616C59.8916 21.219 60.004 21.7704 60.2196 22.2842C60.4351 22.7979 60.7496 23.264 61.145 23.6557C61.5403 24.0474 62.0088 24.357 62.5237 24.5668C63.0385 24.7767 63.5895 24.8826 64.1451 24.8785ZM73.9319 13.0738H77.3362V28.2538H73.9319V13.0738ZM110.944 10.3859H101.21V15.9027H110.663V19.3265H101.21V24.8257H110.944V28.2538H97.5424V6.95772H110.944V10.3859ZM118.104 20.6308L112.864 13.0738H117.195C117.322 13.2853 117.511 13.5761 117.757 13.9551L119.545 16.6562C119.831 17.0968 120.033 17.4053 120.151 17.6124L120.327 17.912L123.441 13.087H127.566L122.427 20.503L127.764 28.2538H123.485L120.186 23.2922L120.006 23.5522C119.861 23.7637 119.646 24.0942 119.356 24.5392C119.066 24.9843 118.763 25.4558 118.434 25.9493L117.507 27.3681C117.261 27.7471 117.068 28.0423 116.949 28.2494H112.86L118.104 20.6308Z" fill="#2F71FF" fill-opacity="0.2"/>
<path d="M73.2904 9.04195C73.2885 8.7404 73.3484 8.44168 73.4663 8.16427C73.5841 7.88686 73.7575 7.63668 73.9757 7.42921C74.4157 6.99195 75.0101 6.74664 75.6295 6.74664C76.2489 6.74664 76.8433 6.99195 77.2833 7.42921C77.5064 7.63679 77.6832 7.88937 77.8021 8.17037C77.9209 8.45136 77.9792 8.7544 77.973 9.05958C77.9695 9.67784 77.7222 10.2696 77.2852 10.7055C76.8481 11.1415 76.2568 11.3862 75.6405 11.3862C75.3317 11.3913 75.0251 11.3339 74.7391 11.2173C74.453 11.1007 74.1933 10.9273 73.9757 10.7076C73.7537 10.4919 73.5783 10.2328 73.4605 9.94622C73.3426 9.65968 73.2847 9.35188 73.2904 9.04195Z" fill="#2F71FF" fill-opacity="0.2"/>
</g>
<defs>
<clipPath id="clip0_103_3593">
<rect width="127" height="35" fill="white" transform="translate(0.750488)"/>
</clipPath>
</defs>
</svg>
