<svg width="182" height="35" viewBox="0 0 182 35" fill="none" xmlns="http://www.w3.org/2000/svg">
<g clip-path="url(#clip0_103_3573)">
<path d="M15.6804 -0.00134277L0.627441 8.74854V26.2483L15.6804 34.9982L30.7334 26.2483V8.74854L15.6804 -0.00134277ZM15.6804 -0.00134277L0.627441 8.74854V26.2483L15.6804 34.9982L30.7334 26.2483V8.74854L15.6804 -0.00134277Z" fill="white"/>
<path d="M21.6232 28.1623H19.4814L16.9173 25.7926V24.5773L19.5719 22.0253V17.9845L23.041 15.7059L26.9928 18.7137L21.6232 28.1623ZM12.7543 21.7822L13.1465 17.9845L11.8493 14.5818H19.5116L18.2446 17.9845L18.6066 21.7822H15.6503H12.7543ZM14.504 25.7926L11.9398 28.1927H9.76784L4.36807 18.7137L8.35002 15.7363L11.8493 17.9845V22.0253L14.504 24.5773V25.7926ZM9.73767 7.56367H21.593L23.0109 13.64H8.35002L9.73767 7.56367ZM15.6804 -0.00134277L0.627441 8.74854V26.2483L15.6804 34.9982L30.7334 26.2483V8.74854L15.6804 -0.00134277Z" fill="#2F71FF" fill-opacity="0.2"/>
<path d="M47.6263 25.6104C43.6444 25.6104 40.7183 22.4811 40.7183 18.6226C40.7183 14.7641 43.6746 11.5437 47.6565 11.5437C50.1905 11.5437 51.7591 12.4855 52.996 13.8527L51.0955 15.9186C50.1603 14.9161 49.1648 14.2477 47.6263 14.2477C45.394 14.2477 43.7651 16.1921 43.7651 18.5618C43.7651 20.9924 45.4242 22.9368 47.7772 22.9368C49.2252 22.9368 50.281 22.238 51.2463 21.2658L53.0865 23.1191C51.7591 24.547 50.2207 25.6104 47.6263 25.6104Z" fill="#2F71FF" fill-opacity="0.2"/>
<path d="M58.9085 25.6104H55.8315V11.5741H58.9085V14.8553C59.7532 12.8502 61.2917 11.4526 63.6446 11.5741V14.8553H63.4636C60.7788 14.8553 58.9085 16.6175 58.9085 20.2025V25.6104Z" fill="#2F71FF" fill-opacity="0.2"/>
<path d="M72.9359 29.3776H69.8288L71.307 25.6103L65.4849 11.5133H68.773L72.7248 21.9342L76.5257 11.5133H79.7234L72.9359 29.3776Z" fill="#2F71FF" fill-opacity="0.2"/>
<path d="M88.7733 14.2173C86.6918 14.2173 84.8819 15.9186 84.8819 18.5618C84.8819 21.205 86.722 22.9064 88.7733 22.9064C90.885 22.9064 92.6044 21.2354 92.6044 18.5618C92.6044 15.8882 90.8548 14.2173 88.7733 14.2173ZM89.4672 25.5799C87.265 25.5799 85.8774 24.4558 84.9422 23.2102V29.3776H81.8652V11.5133H84.9422V14.035C85.9377 12.6374 87.3253 11.5133 89.4672 11.5133C92.6346 11.5133 95.7116 14.035 95.7116 18.5314C95.7116 23.0279 92.6648 25.5799 89.4672 25.5799Z" fill="#2F71FF" fill-opacity="0.2"/>
<path d="M102.439 14.4603V21.0835C102.439 22.2684 103.042 22.7545 104.098 22.7545H105.304V25.5192H103.193C100.96 25.5192 99.3617 24.5166 99.3617 21.5696V14.4603H97.6724V11.8171H99.3617V8.1106H102.439V11.8171H105.304V14.4603H102.439Z" fill="#2F71FF" fill-opacity="0.2"/>
<path d="M114.988 14.2173C112.514 14.2173 110.945 16.1617 110.945 18.5315C110.945 20.9316 112.635 22.9064 115.018 22.9064C117.492 22.9064 119.06 20.962 119.06 18.5922C119.121 16.1921 117.401 14.2173 114.988 14.2173ZM114.988 25.6104C110.915 25.6104 107.899 22.4811 107.899 18.6226C107.899 14.7338 110.945 11.5437 115.048 11.5437C119.151 11.5437 122.167 14.673 122.167 18.5618C122.167 22.3899 119.151 25.6104 114.988 25.6104Z" fill="#2F71FF" fill-opacity="0.2"/>
<path d="M151.519 14.2173C149.046 14.2173 147.477 16.1617 147.477 18.5315C147.477 20.9316 149.166 22.9064 151.549 22.9064C154.023 22.9064 155.592 20.962 155.592 18.5922C155.622 16.1921 153.933 14.2173 151.519 14.2173ZM151.519 25.6104C147.447 25.6104 144.43 22.4811 144.43 18.6226C144.43 14.7338 147.477 11.5437 151.58 11.5437C155.682 11.5437 158.699 14.673 158.699 18.5618C158.699 22.3899 155.652 25.6104 151.519 25.6104Z" fill="#2F71FF" fill-opacity="0.2"/>
<path d="M176.919 11.5133C179.845 11.5133 181.625 13.3666 181.625 16.6782V25.58H178.548V17.62C178.548 15.4629 177.553 14.3388 175.833 14.3388C174.174 14.3388 172.967 15.5237 172.967 17.6808V25.6103H169.89V17.62C169.89 15.5237 168.865 14.3388 167.175 14.3388C165.486 14.3388 164.31 15.6148 164.31 17.7111V25.6103H161.233V11.5437H164.31V13.8527C165.184 12.6678 166.331 11.5437 168.382 11.5437C170.313 11.5437 171.64 12.4855 172.364 13.9134C173.48 12.4551 174.898 11.5133 176.919 11.5133Z" fill="#2F71FF" fill-opacity="0.2"/>
<path d="M124.852 24.4862L124.762 24.3343V22.7545L124.852 22.6026L126.18 21.843H126.361L127.718 22.6026L127.809 22.7545V24.3343L127.718 24.4862L126.361 25.2457H126.18L124.852 24.4862Z" fill="#2F71FF" fill-opacity="0.2"/>
<path d="M137.13 25.58C133.148 25.4888 130.282 22.2988 130.342 18.4403C130.403 14.5819 133.419 11.4222 137.432 11.5133C139.966 11.5741 141.534 12.5463 142.741 13.9439L140.81 15.9794C139.905 14.9768 138.91 14.2477 137.371 14.2173C135.139 14.1869 133.48 16.0706 133.45 18.4707C133.389 20.9012 135.018 22.876 137.371 22.9064C138.819 22.9368 139.905 22.2684 140.871 21.2962L142.681 23.1798C141.323 24.6078 139.754 25.6407 137.13 25.58Z" fill="#2F71FF" fill-opacity="0.2"/>
</g>
<defs>
<clipPath id="clip0_103_3573">
<rect width="181" height="35" fill="white" transform="translate(0.625488)"/>
</clipPath>
</defs>
</svg>
