<svg width="32" height="32" viewBox="0 0 32 32" fill="none" xmlns="http://www.w3.org/2000/svg">
<g clip-path="url(#clip0_89_783)">
<path d="M5.72013 3.51654H5.71256C4.55513 3.53348 3.61375 4.48935 3.61375 5.64735V8.69235H0.471C0.210875 8.69235 0 8.90323 0 9.16335C0 9.42348 0.210875 9.63435 0.471 9.63435H3.61381V12.1107H0.471C0.210875 12.1107 0 12.3216 0 12.5817C0 12.8419 0.210875 13.0527 0.471 13.0527H3.61381V15.529H0.471C0.210875 15.5291 0 15.74 0 16.0001C0 16.2602 0.210875 16.4711 0.471 16.4711H3.61381V18.9474H0.471C0.210875 18.9474 0 19.1583 0 19.4184C0 19.6785 0.210875 19.8894 0.471 19.8894H3.61381V22.3658H0.471C0.210875 22.3658 0 22.5767 0 22.8368C0 23.0969 0.210875 23.3078 0.471 23.3078H3.61381V24.9184C3.61381 25.1784 3.82481 25.3894 4.08481 25.3894C4.34481 25.3894 4.55581 25.1784 4.55581 24.9184V5.64742C4.55581 5.00117 5.08081 4.46804 5.72706 4.45798C5.98706 4.45423 6.19494 4.24067 6.19056 3.98004C6.18675 3.72254 5.977 3.51654 5.72013 3.51654Z" fill="#2F71FF"/>
<path d="M25.6355 27.3469H5.7453C5.25986 27.3469 4.8278 27.0568 4.6438 26.6077C4.54517 26.3666 4.27073 26.2517 4.02961 26.3502C3.78842 26.4489 3.67355 26.7239 3.77211 26.9644C4.10117 27.7689 4.87555 28.2889 5.7453 28.2889H8.69236V31.529C8.69236 31.7891 8.90323 32 9.16336 32C9.42348 32 9.63436 31.7891 9.63436 31.529V28.2889H12.1107V31.529C12.1107 31.7891 12.3216 32 12.5817 32C12.8419 32 13.0527 31.7891 13.0527 31.529V28.2889H15.529V31.529C15.529 31.7891 15.7399 32 16 32C16.2602 32 16.471 31.7891 16.471 31.529V28.2889H18.9474V31.529C18.9474 31.7891 19.1582 32 19.4184 32C19.6785 32 19.8894 31.7891 19.8894 31.529V28.2889H22.3657V31.529C22.3657 31.7891 22.5766 32 22.8367 32C23.0969 32 23.3077 31.7891 23.3077 31.529V28.2889H25.6355C25.8955 28.2889 26.1065 28.0779 26.1065 27.8179C26.1065 27.5574 25.8955 27.3469 25.6355 27.3469Z" fill="#2F71FF"/>
<path d="M22.3881 8.00873H9.612C8.78175 8.00873 8.10669 8.68385 8.10669 9.51404V22.2909C8.10669 23.1211 8.78181 23.7962 9.612 23.7962H22.3882C23.2184 23.7962 23.8935 23.121 23.8935 22.2909V9.51404C23.8935 8.68379 23.2184 8.00873 22.3881 8.00873ZM9.04863 9.51404C9.04863 9.20317 9.30106 8.95073 9.61194 8.95073H19.3548V13.8699C18.5033 14.0539 17.8306 14.7265 17.6467 15.5781H14.1757V13.1628C15.0656 12.9889 15.7388 12.2032 15.7388 11.263C15.7388 10.196 14.8703 9.32754 13.8027 9.32754C12.8626 9.32754 12.077 10.0007 11.9029 10.89H9.04863V9.51404ZM19.8259 14.7617C20.5355 14.7617 21.1127 15.3394 21.1127 16.0491C21.1127 16.7588 20.5356 17.3359 19.8259 17.3359C19.1111 17.3359 18.5384 16.7531 18.5384 16.0491C18.5385 15.3438 19.1128 14.7617 19.8259 14.7617ZM13.8027 12.2572C13.258 12.2572 12.8086 11.8142 12.8086 11.263C12.8086 10.7154 13.2544 10.2695 13.8027 10.2695C14.3509 10.2695 14.7968 10.7154 14.7968 11.263C14.7968 11.816 14.3466 12.2572 13.8027 12.2572ZM11.7686 19.9553C11.4954 19.802 11.3108 19.5088 11.3108 19.174C11.3108 18.6798 11.7133 18.2779 12.2076 18.2779C12.7018 18.2779 13.1038 18.6798 13.1038 19.174C13.1037 19.8589 12.3629 20.2913 11.7686 19.9553ZM15.5779 22.8542H12.4179V21.0003C13.3329 20.896 14.0458 20.1167 14.0458 19.174C14.0458 18.1604 13.2212 17.3359 12.2076 17.3359C11.1933 17.3359 10.3688 18.1604 10.3688 19.174C10.3688 19.9277 10.8247 20.5777 11.4759 20.8609V22.8542H9.612C9.30113 22.8542 9.04869 22.6011 9.04869 22.2909V11.832H11.9519C11.9559 11.8385 12.2091 12.7989 13.2337 13.1138V16.0491C13.2337 16.3091 13.4447 16.5201 13.7047 16.5201H15.5779V22.8542ZM22.9515 22.2909C22.9515 22.6011 22.6991 22.8542 22.3882 22.8542H16.5199V20.8173H22.9515V22.2909ZM22.9515 19.8753H16.5199V16.5201H17.6467C17.8634 17.5237 18.7583 18.2779 19.8259 18.2779C21.0549 18.2779 22.0547 17.2781 22.0547 16.0491C22.0547 14.9815 21.3004 14.0866 20.2969 13.8699C20.2969 13.8699 20.2968 13.8699 20.2968 13.8699V8.95073H22.3881C22.699 8.95073 22.9514 9.20317 22.9514 9.51404V19.8753H22.9515Z" fill="#2F71FF"/>
<path d="M31.5291 13.0528C31.7892 13.0528 32.0001 12.8419 32.0001 12.5818C32.0001 12.3217 31.7892 12.1108 31.5291 12.1108H28.3863V9.63443H31.5291C31.7892 9.63443 32.0001 9.42356 32.0001 9.16343C32.0001 8.90331 31.7892 8.69243 31.5291 8.69243H28.3863V5.64743C28.3863 4.47243 27.4305 3.516 26.2549 3.516H23.3078V0.471122C23.3078 0.210997 23.0969 0.00012207 22.8368 0.00012207C22.5767 0.00012207 22.3658 0.210997 22.3658 0.471122V3.51593H19.8894V0.471122C19.8894 0.210997 19.6786 0.00012207 19.4184 0.00012207C19.1583 0.00012207 18.9474 0.210997 18.9474 0.471122V3.51593H16.4711V0.471122C16.4711 0.210997 16.2602 0.00012207 16.0001 0.00012207C15.74 0.00012207 15.5291 0.210997 15.5291 0.471122V3.51593H13.0528V0.471122C13.0528 0.210997 12.8419 0.00012207 12.5818 0.00012207C12.3217 0.00012207 12.1108 0.210997 12.1108 0.471122V3.51593H9.63443V0.471122C9.63443 0.210997 9.42355 0.00012207 9.16343 0.00012207C8.9033 0.00012207 8.69243 0.210997 8.69243 0.471122V3.51593H7.6043C7.34368 3.51593 7.1333 3.72693 7.1333 3.98693C7.1333 4.24693 7.34368 4.45793 7.6043 4.45793C10.0716 4.45793 24.2802 4.45793 26.2549 4.45793C26.9111 4.45793 27.4443 4.99175 27.4443 5.64737V26.1575C27.4443 26.4859 27.3137 26.7918 27.0757 27.0185C26.8873 27.1981 26.8797 27.4964 27.0594 27.6842C27.1523 27.7815 27.2761 27.8305 27.4004 27.8305C27.5172 27.8305 27.634 27.7872 27.7257 27.7005C28.1515 27.2942 28.3864 26.7459 28.3864 26.1575V23.3078H31.5292C31.7893 23.3078 32.0002 23.0969 32.0002 22.8368C32.0002 22.5767 31.7893 22.3658 31.5292 22.3658H28.3864V19.8894H31.5292C31.7893 19.8894 32.0002 19.6786 32.0002 19.4184C32.0002 19.1583 31.7893 18.9474 31.5292 18.9474H28.3864V16.4711H31.5292C31.7893 16.4711 32.0002 16.2602 32.0002 16.0001C32.0002 15.74 31.7893 15.5291 31.5292 15.5291H28.3864V13.0528H31.5291Z" fill="#2F71FF"/>
</g>
<defs>
<clipPath id="clip0_89_783">
<rect width="32" height="32" fill="white"/>
</clipPath>
</defs>
</svg>
