<svg width="32" height="32" viewBox="0 0 32 32" fill="none" xmlns="http://www.w3.org/2000/svg">
<path d="M30.6366 15.8856L30.6129 15.8865C29.8871 15.9138 29.2606 16.4238 29.0894 17.1268L28.5872 19.189C28.1102 21.1474 26.7981 22.7784 24.9873 23.6637C24.7747 23.7676 24.5347 23.7448 24.3455 23.6026C24.1562 23.4604 24.0676 23.2362 24.1083 23.0031L24.5047 20.7324C24.6242 20.0482 24.1842 19.4054 23.5032 19.2689C22.9862 19.1654 22.4686 19.3853 22.1844 19.8294L19.6185 23.8375C19.2511 23.5727 18.7346 23.6044 18.4042 23.9346L16.5431 25.7958C16.36 25.9789 16.36 26.2757 16.5431 26.4587L21.9472 31.8629C22.0387 31.9544 22.1587 32.0001 22.2787 32.0001C22.3986 32.0001 22.5186 31.9544 22.6102 31.8629L24.4714 30.0017C24.8194 29.6536 24.8364 29.0984 24.5234 28.7292C25.1204 28.3971 25.7031 28.0166 26.256 27.5971C26.4622 27.4407 26.5026 27.1466 26.3461 26.9404C26.1897 26.7342 25.8957 26.6938 25.6893 26.8503C24.7388 27.5714 23.9422 27.9752 23.8373 28.0376L20.3046 24.5048L22.9739 20.3349C23.0483 20.2187 23.1837 20.1616 23.319 20.1882C23.4973 20.2239 23.6124 20.3922 23.5811 20.5712L23.1847 22.8419C23.0837 23.4206 23.3127 23.9992 23.7822 24.3521C24.2519 24.7049 24.8713 24.7639 25.399 24.5059C27.4608 23.4979 28.9549 21.6409 29.4981 19.4109L30.0002 17.3487C30.1619 16.6847 31.117 16.6538 31.0607 17.2357C30.7522 20.4164 29.3307 23.4089 27.058 25.6619C26.8742 25.8442 26.8729 26.141 27.0551 26.3248C27.2374 26.5086 27.5341 26.5101 27.718 26.3277C30.1457 23.9209 31.6642 20.7241 31.9937 17.3261C32.0702 16.5391 31.4374 15.8572 30.6366 15.8856ZM22.2787 30.8685L17.5378 26.1276L19.0714 24.5976L23.8084 29.3387L22.2787 30.8685Z" fill="#2F71FF"/>
<path d="M9.91253 7.90631L10.5358 8.25169C10.541 8.25463 10.5453 8.25881 10.5483 8.264L11.5234 9.95288C11.5264 9.958 11.5279 9.96388 11.5278 9.96981L11.5153 10.6824C11.5092 11.0348 11.695 11.3631 12.0002 11.5394L13.4127 12.3548C13.5627 12.4415 13.7303 12.4848 13.8977 12.4848C14.0708 12.4848 14.2437 12.4386 14.3972 12.3463L15.0083 11.9791C15.0133 11.9761 15.019 11.9746 15.025 11.9746H16.9752C16.9812 11.9746 16.987 11.9761 16.992 11.9792L17.603 12.3463C17.9052 12.5278 18.2825 12.5311 18.5875 12.3548L19.9999 11.5394C20.3052 11.3632 20.4908 11.0348 20.4848 10.6824L20.4724 9.96981C20.4723 9.96388 20.4738 9.95806 20.4767 9.95294L21.452 8.26394C21.4549 8.25881 21.4592 8.25463 21.4642 8.25181L22.0876 7.90631C22.3958 7.7355 22.5873 7.41038 22.5873 7.05794V5.427C22.5873 5.07463 22.3959 4.74956 22.0876 4.57863L21.4644 4.23325C21.4592 4.23031 21.4549 4.22613 21.4518 4.22088L21.3955 4.12331C21.2661 3.89919 20.9793 3.82238 20.7552 3.95188C20.531 4.08131 20.4543 4.368 20.5838 4.59219L20.64 4.68963C20.7279 4.842 20.8557 4.96763 21.0098 5.05306L21.633 5.3985C21.6434 5.40431 21.6499 5.41519 21.6499 5.427V7.05794C21.6499 7.06975 21.6435 7.08063 21.6332 7.08638L21.0096 7.432C20.8557 7.51731 20.7279 7.643 20.64 7.79525L19.6648 9.48425C19.5768 9.63669 19.532 9.81025 19.535 9.98613L19.5474 10.6987C19.5477 10.7105 19.5414 10.7215 19.5312 10.7274L18.1187 11.5429C18.1085 11.5488 18.0957 11.5486 18.0858 11.5426L17.4749 11.1756C17.324 11.0849 17.1513 11.037 16.9753 11.037H15.025C14.8489 11.037 14.6761 11.0849 14.5255 11.1756L13.9145 11.5426C13.9044 11.5487 13.8918 11.5488 13.8816 11.5429L12.4692 10.7275C12.4589 10.7215 12.4526 10.7106 12.4528 10.6987L12.4653 9.98613C12.4683 9.81025 12.4235 9.63669 12.3355 9.48419L11.3603 7.79531C11.2724 7.64294 11.1446 7.51731 10.9905 7.43188L10.3672 7.08638C10.3568 7.08069 10.3504 7.06975 10.3504 7.05794V5.427C10.3504 5.41519 10.3569 5.40425 10.3671 5.39856L10.9907 5.05294C11.1446 4.96763 11.2724 4.84194 11.3603 4.68969L12.3355 3.00069C12.4235 2.84825 12.4683 2.67469 12.4653 2.49881L12.4528 1.78625C12.4526 1.7745 12.4588 1.7635 12.4691 1.75756L13.8817 0.942002C13.8919 0.936127 13.9044 0.936252 13.9145 0.942377L14.5255 1.3095C14.6763 1.40006 14.8491 1.448 15.025 1.448H16.9753C17.1511 1.448 17.3238 1.40013 17.4748 1.30944L18.0858 0.942377C18.0959 0.936252 18.1085 0.936127 18.1187 0.942064L19.5313 1.75763C19.5414 1.7635 19.5477 1.7745 19.5474 1.78625L19.535 2.49888C19.5325 2.64625 19.5653 2.79606 19.63 2.932C19.7412 3.16575 20.021 3.26519 20.2546 3.15406C20.4884 3.04288 20.5878 2.76319 20.4767 2.52944C20.4735 2.52281 20.4724 2.51756 20.4725 2.51519L20.4848 1.80263C20.491 1.45013 20.3052 1.12175 20 0.945689L18.5875 0.130127C18.2823 -0.0461855 17.9049 -0.042998 17.6028 0.138689L16.9922 0.505627C16.987 0.508752 16.9811 0.510377 16.9752 0.510377H15.025C15.019 0.510377 15.0132 0.508752 15.0082 0.505752L14.3973 0.138752C14.0954 -0.0428105 13.718 -0.046248 13.4127 0.130064L12.0003 0.945502C11.695 1.12169 11.5093 1.45006 11.5153 1.8025L11.5278 2.51506C11.5279 2.521 11.5264 2.52681 11.5235 2.53194L10.5482 4.22094C10.5453 4.22606 10.541 4.23025 10.536 4.23306L9.91234 4.57863C9.60422 4.74956 9.41284 5.07469 9.41284 5.42694V7.05788C9.41284 7.41038 9.60428 7.73544 9.91253 7.90631Z" fill="#2F71FF"/>
<path d="M16.0001 3.40759C14.437 3.40759 13.1653 4.67934 13.1653 6.24247C13.1653 7.80559 14.437 9.07728 16.0001 9.07728C17.5633 9.07728 18.835 7.80553 18.835 6.24247C18.835 4.67928 17.5633 3.40759 16.0001 3.40759ZM16.0001 8.13984C14.9539 8.13984 14.1028 7.28872 14.1028 6.24253C14.1028 5.19634 14.9539 4.34509 16.0001 4.34509C17.0463 4.34509 17.8975 5.19628 17.8975 6.24247C17.8975 7.28866 17.0463 8.13984 16.0001 8.13984Z" fill="#2F71FF"/>
<path d="M24.5281 15.447C25.6911 15.447 26.6374 14.5007 26.6374 13.3376C26.6374 12.1746 25.6911 11.2283 24.5281 11.2283C23.365 11.2283 22.4187 12.1746 22.4187 13.3376C22.4187 14.5007 23.365 15.447 24.5281 15.447ZM24.5281 12.1658C25.1742 12.1658 25.6999 12.6915 25.6999 13.3376C25.6999 13.9838 25.1742 14.5095 24.5281 14.5095C23.8819 14.5095 23.3562 13.9838 23.3562 13.3376C23.3562 12.6915 23.882 12.1658 24.5281 12.1658Z" fill="#2F71FF"/>
<path d="M21.2749 10.2617L21.283 10.7221L20.6404 11.835L20.2378 12.0582C19.9783 12.2019 19.8171 12.4755 19.8171 12.7722V13.903C19.8171 14.1996 19.9783 14.4732 20.2377 14.617L20.6404 14.8403L21.283 15.9532L21.2749 16.4137C21.2698 16.7102 21.4261 16.9865 21.6829 17.1349L22.6623 17.7002C22.7886 17.7732 22.9295 17.8095 23.0704 17.8095C23.216 17.8095 23.3616 17.7707 23.4908 17.693L23.8855 17.4559H25.1706L25.5653 17.693C25.8195 17.8457 26.137 17.8485 26.394 17.7002L27.3732 17.1349C27.6301 16.9866 27.7864 16.7103 27.7813 16.4137L27.7732 15.9532L28.4158 14.8403L28.8186 14.617C29.078 14.4731 29.2391 14.1995 29.2391 13.903V12.7722C29.2391 12.4756 29.078 12.202 28.8186 12.0583L28.4158 11.835L27.7732 10.7221L27.7813 10.2617C27.7864 9.96504 27.6301 9.68873 27.3733 9.54048L26.3939 8.97504C26.1372 8.82673 25.8196 8.82967 25.5653 8.98229L25.1706 9.21948H23.8855L23.4908 8.98229C23.2366 8.8296 22.9191 8.82679 22.6622 8.97504L21.6828 9.54054C21.4261 9.68879 21.2698 9.96517 21.2749 10.2617ZM22.2135 10.3167L23.0691 9.82267L23.4316 10.0405C23.5585 10.1167 23.7038 10.157 23.852 10.157H25.2042C25.3523 10.157 25.4976 10.1167 25.6246 10.0404L25.9871 9.82267L26.8427 10.3167L26.8353 10.7394C26.8328 10.8877 26.8706 11.0339 26.9446 11.1618L27.6206 12.3326C27.6946 12.461 27.8022 12.5668 27.9318 12.6386L28.3016 12.8436V13.8317L27.9316 14.0367C27.8021 14.1085 27.6945 14.2144 27.6206 14.3424L26.9446 15.5134C26.8705 15.6417 26.8327 15.7877 26.8353 15.9359L26.8426 16.3587L25.987 16.8526L25.6245 16.6349C25.4976 16.5586 25.3523 16.5184 25.2041 16.5184H23.852C23.7039 16.5184 23.5586 16.5587 23.4315 16.6349L23.0691 16.8526L22.2135 16.3587L22.2208 15.9359C22.2234 15.7877 22.1856 15.6417 22.1116 15.5135L21.4356 14.3427C21.3616 14.2143 21.254 14.1085 21.1243 14.0367L20.7546 13.8317V12.8437L21.124 12.6389C21.2537 12.5672 21.3615 12.4612 21.4355 12.3329L22.1114 11.1622C22.1856 11.0339 22.2234 10.8877 22.2208 10.7395L22.2135 10.3167Z" fill="#2F71FF"/>
<path d="M7.47211 15.447C8.63517 15.447 9.58142 14.5007 9.58142 13.3376C9.58142 12.1746 8.63517 11.2283 7.47211 11.2283C6.30904 11.2283 5.36279 12.1746 5.36279 13.3376C5.36279 14.5007 6.30904 15.447 7.47211 15.447ZM7.47211 12.1658C8.11823 12.1658 8.64392 12.6915 8.64392 13.3376C8.64392 13.9838 8.11823 14.5095 7.47211 14.5095C6.82598 14.5095 6.30029 13.9838 6.30029 13.3376C6.30029 12.6915 6.82598 12.1658 7.47211 12.1658Z" fill="#2F71FF"/>
<path d="M3.18155 14.617L3.58436 14.8402L4.22686 15.9531L4.21874 16.4136C4.21361 16.7102 4.36999 16.9865 4.6268 17.1348L5.60605 17.7001C5.86274 17.8485 6.1803 17.8457 6.43474 17.693L6.82942 17.4558H8.11449L8.50924 17.693C8.63849 17.7706 8.78399 17.8095 8.92974 17.8095C9.07061 17.8095 9.21155 17.7731 9.3378 17.7002L10.317 17.1348C10.5739 16.9865 10.7303 16.7102 10.7252 16.4135L10.717 15.9531L11.3595 14.8402L11.7625 14.6169C12.0218 14.473 12.183 14.1995 12.183 13.903V12.7722C12.183 12.4755 12.0218 12.202 11.7624 12.0582L11.3596 11.8349L10.717 10.722L10.7252 10.2616C10.7303 9.96504 10.5739 9.68867 10.3171 9.54042L9.33786 8.97504C9.08111 8.82661 8.76361 8.82948 8.5093 8.98223L8.11449 9.21942H6.82942L6.43461 8.98217C6.1803 8.82942 5.86286 8.8268 5.60611 8.97498L4.62686 9.54042C4.36999 9.68867 4.21361 9.96504 4.21874 10.2617L4.22686 10.722L3.58436 11.8349L3.18161 12.0582C2.92217 12.202 2.76099 12.4755 2.76099 12.7722V13.903C2.76099 14.1995 2.92211 14.4731 3.18155 14.617ZM3.69849 12.8436L4.06786 12.6389C4.19749 12.5672 4.30524 12.4614 4.37942 12.3329L5.05561 11.1617C5.12961 11.0335 5.16736 10.8874 5.1648 10.7394L5.15736 10.3167L6.01305 9.82267L6.37536 10.0404C6.5023 10.1167 6.64767 10.157 6.79586 10.157H8.14817C8.2963 10.157 8.44167 10.1166 8.56855 10.0404L8.93105 9.82267L9.78667 10.3167L9.77924 10.7394C9.77667 10.8874 9.81442 11.0335 9.88849 11.1618L10.5647 12.333C10.6389 12.4614 10.7465 12.5672 10.8762 12.6389L11.2455 12.8437V13.8317L10.8758 14.0367C10.7463 14.1084 10.6387 14.2142 10.5646 14.3425L9.88836 15.5138C9.81436 15.6421 9.77667 15.788 9.77924 15.936L9.78667 16.3587L8.93099 16.8527L8.56867 16.635C8.44174 16.5587 8.29636 16.5184 8.14817 16.5184H6.79586C6.64774 16.5184 6.50236 16.5588 6.37549 16.635L6.01305 16.8527L5.15736 16.3587L5.1648 15.936C5.16736 15.788 5.12967 15.6421 5.05555 15.5135L4.37936 14.3424C4.3053 14.2142 4.19774 14.1085 4.06817 14.0367L3.69842 13.8317V12.8436H3.69849Z" fill="#2F71FF"/>
<path d="M13.5958 23.9345C13.2654 23.6043 12.7489 23.5726 12.3815 23.8374L9.81567 19.8293C9.53149 19.3853 9.01349 19.1649 8.4968 19.2688C7.8158 19.4053 7.3758 20.0481 7.4953 20.7323L7.89168 23.0029C7.93236 23.2361 7.84374 23.4602 7.65449 23.6024C7.46536 23.7446 7.2253 23.7674 7.01268 23.6635C5.20186 22.7782 3.88974 21.1472 3.4128 19.1889L2.91055 17.1267C2.73936 16.4237 2.11286 15.9137 1.38674 15.8864L1.36374 15.8855C0.569113 15.8551 -0.0703871 16.5346 0.00623785 17.326C0.4718 22.1266 3.26368 26.3856 7.47693 28.7289C7.16368 29.098 7.18043 29.6533 7.52868 30.0016L9.38986 31.8628C9.48143 31.9543 9.60136 32.0001 9.72136 32.0001C9.8413 32.0001 9.9613 31.9543 10.0528 31.8628L12.1329 29.7828C12.316 29.5997 12.316 29.3029 12.1329 29.1199C11.9499 28.9369 11.6531 28.9368 11.47 29.1199L9.72174 30.8681L8.19168 29.3346L12.9329 24.5976L14.4627 26.1273L12.7952 27.7947C12.6121 27.9778 12.6121 28.2746 12.7952 28.4576C12.9783 28.6406 13.2751 28.6407 13.458 28.4576L15.4569 26.4588C15.5449 26.3709 15.5942 26.2517 15.5942 26.1273C15.5942 26.0029 15.5449 25.8838 15.457 25.7958L13.5958 23.9345ZM0.939363 17.2356C0.91705 17.0053 1.10555 16.812 1.32874 16.8225C1.33499 16.8228 1.35824 16.8236 1.35199 16.8234C1.6658 16.8351 1.92611 17.0462 1.99968 17.3486L2.50193 19.4108C3.04499 21.6407 4.53905 23.4978 6.60093 24.5058C7.12861 24.7638 7.74818 24.7049 8.21768 24.3519C8.6873 23.9991 8.91624 23.4204 8.81524 22.8418L8.41886 20.5711C8.38755 20.3921 8.50274 20.2238 8.68093 20.1881C8.81649 20.1611 8.95168 20.2185 9.02605 20.3348L11.6954 24.5047L8.16267 28.0374C8.10592 27.9848 1.68974 24.9729 0.939363 17.2356Z" fill="#2F71FF"/>
</svg>
