<svg width="32" height="32" viewBox="0 0 32 32" fill="none" xmlns="http://www.w3.org/2000/svg">
<g clip-path="url(#clip0_89_789)">
<path d="M10.8012 21.8921C10.5514 21.9617 10.4052 22.2207 10.4749 22.4706L11.8589 27.4375C11.9687 27.8316 12.3174 28.0964 12.7265 28.0964C13.1356 28.0964 13.4843 27.8316 13.5941 27.4375L14.9781 22.4706C15.0477 22.2207 14.9017 21.9617 14.6517 21.8921C14.4017 21.8222 14.1429 21.9686 14.0732 22.2184L12.7264 27.0517L11.3797 22.2184C11.3101 21.9686 11.0512 21.8225 10.8012 21.8921Z" fill="#2F71FF"/>
<path d="M15.9768 22.3474V27.6267C15.9768 27.8861 16.1871 28.0949 16.4465 28.0949C16.7059 28.0949 16.9162 27.8831 16.9162 27.6237V22.3474C16.9162 22.0881 16.7059 21.8777 16.4465 21.8777C16.1871 21.8777 15.9768 22.0881 15.9768 22.3474Z" fill="#2F71FF"/>
<path d="M18.5964 21.8701C18.337 21.8701 18.1267 22.0804 18.1267 22.3397V27.6267C18.1267 27.8861 18.337 28.0964 18.5964 28.0964C18.8558 28.0964 19.0661 27.8861 19.0661 27.6267V25.8326H19.5612C20.6537 25.8326 21.5425 24.9437 21.5425 23.8512C21.5425 22.7588 20.6536 21.87 19.5612 21.87H18.5964V21.8701ZM20.6031 23.8513C20.6031 24.4259 20.1358 24.8932 19.5612 24.8932H19.0661V22.8094H19.5612C20.1357 22.8094 20.6031 23.2768 20.6031 23.8513Z" fill="#2F71FF"/>
<path d="M19.3633 14.1271L17.857 13.7884C17.8105 13.7779 17.7698 13.7484 17.7455 13.7073L16.9578 12.3794C16.7552 12.0379 16.3972 11.834 16.0001 11.834C15.603 11.834 15.245 12.0379 15.0423 12.3794L14.2547 13.7074C14.2304 13.7484 14.1897 13.7779 14.1432 13.7884L12.6369 14.1272C12.2495 14.2143 11.9449 14.4918 11.8222 14.8695C11.6995 15.2472 11.7827 15.6507 12.045 15.9489L13.0645 17.1083C13.096 17.1441 13.1115 17.192 13.1071 17.2395L12.9638 18.7767C12.9269 19.172 13.0967 19.5475 13.418 19.7809C13.7392 20.0144 14.1488 20.0598 14.5134 19.9026L15.9311 19.2912C15.9749 19.2723 16.0252 19.2724 16.069 19.2912L17.4867 19.9026C17.8466 20.0577 18.2652 20.0112 18.5822 19.7809C18.9034 19.5475 19.0732 19.172 19.0363 18.7767L18.893 17.2395C18.8886 17.192 18.9042 17.1441 18.9357 17.1083L19.9552 15.9489C20.2174 15.6507 20.3007 15.2472 20.178 14.8695C20.0553 14.4917 19.7507 14.2142 19.3633 14.1271ZM19.2498 15.3285L18.2303 16.4879C18.0288 16.717 17.9295 17.0227 17.9578 17.3266L18.1012 18.8638C18.1133 18.9939 17.979 19.0919 17.8587 19.0399L16.441 18.4286C16.1623 18.3084 15.8379 18.3084 15.5592 18.4286L14.1415 19.0399C14.0212 19.0919 13.8869 18.9939 13.899 18.8638L14.0423 17.3266C14.0707 17.0227 13.9713 16.717 13.7698 16.4879L12.7503 15.3285C12.6638 15.2301 12.7156 15.0722 12.8429 15.0435L14.3492 14.7048C14.6469 14.6379 14.907 14.4489 15.0626 14.1865L15.8502 12.8586C15.9169 12.7461 16.0831 12.746 16.1499 12.8586L16.9375 14.1864C17.0932 14.449 17.3532 14.6379 17.6509 14.7048L19.1572 15.0435C19.2845 15.0722 19.3365 15.2301 19.2498 15.3285Z" fill="#2F71FF"/>
<path d="M23.191 6.387H19.7532L20.4241 5.03662C20.5394 4.80431 20.4447 4.52243 20.2124 4.40706C19.9803 4.29156 19.6983 4.38637 19.5829 4.61868L18.7044 6.38693H16.9725L16.5245 5.48518L18.7829 0.939435H21.4108L20.4203 2.93312C20.3049 3.16543 20.3997 3.44731 20.632 3.56268C20.8642 3.67812 21.1462 3.58337 21.2616 3.35106L22.5893 0.678747C22.7416 0.37181 22.5106 0.00012207 22.1686 0.00012207H18.4918C18.3134 0.00012207 18.1505 0.101122 18.0711 0.26081L16 4.42962L13.9289 0.26081C13.8495 0.101122 13.6866 0.00012207 13.5083 0.00012207H9.83144C9.48938 0.00012207 9.25832 0.37181 9.41082 0.678747L12.2468 6.387H8.80901C7.75388 6.387 6.89551 7.24537 6.89551 8.3005V12.2018C6.89551 12.4612 7.10582 12.6715 7.3652 12.6715C7.62457 12.6715 7.83488 12.4612 7.83488 12.2018V8.3005C7.83488 7.76337 8.27188 7.32631 8.80907 7.32631H12.7135L13.4039 8.71587H13.0679C12.8085 8.71587 12.5982 8.92612 12.5982 9.18556C12.5982 9.44493 12.8084 9.65525 13.0679 9.65525H18.9323C19.1916 9.65525 19.4019 9.44493 19.4019 9.18556C19.4019 8.92618 19.1917 8.71587 18.9323 8.71587H18.1296L17.4392 7.32631H23.191C23.7281 7.32631 24.1652 7.76331 24.1652 8.3005V24.4401C24.1652 24.6995 24.3754 24.9098 24.6349 24.9098C24.8943 24.9098 25.1046 24.6995 25.1046 24.4401V8.3005C25.1045 7.24537 24.2461 6.387 23.191 6.387ZM14.4527 8.71587L10.5893 0.939435H13.2172L17.0806 8.71587H14.4527Z" fill="#2F71FF"/>
<path d="M24.6349 25.8492C24.3755 25.8492 24.1652 26.0594 24.1652 26.3188V30.0867C24.1652 30.6238 23.7282 31.0608 23.191 31.0608H8.80907C8.27195 31.0608 7.83488 30.6238 7.83488 30.0867V14.0805C7.83488 13.8212 7.62463 13.6108 7.3652 13.6108C7.10576 13.6108 6.89551 13.8212 6.89551 14.0805V30.0867C6.89551 31.1418 7.75388 32.0002 8.80901 32.0002H23.191C24.2461 32.0002 25.1045 31.1418 25.1045 30.0867V26.3188C25.1046 26.0594 24.8943 25.8492 24.6349 25.8492Z" fill="#2F71FF"/>
</g>
<defs>
<clipPath id="clip0_89_789">
<rect width="32" height="32" fill="white"/>
</clipPath>
</defs>
</svg>
