<svg width="32" height="32" viewBox="0 0 32 32" fill="none" xmlns="http://www.w3.org/2000/svg">
<g clip-path="url(#clip0_89_795)">
<path d="M30.8011 7.83931L23.0992 0.137435C23.0143 0.0621221 22.9237 0.00212207 22.7677 0.00012207H9.79891C8.50653 0.00012207 7.45516 1.0515 7.45516 2.34387V7.93943H6.37647C6.04247 7.93943 5.77084 8.21112 5.77084 8.54506V9.346C5.20635 9.56587 4.68278 9.86912 4.20928 10.2505L3.51778 9.85043C3.3776 9.76925 3.21416 9.74775 3.05772 9.78962C2.90128 9.83156 2.77053 9.93194 2.68966 10.0722L1.14178 12.7589C0.975283 13.0478 1.0746 13.4187 1.36322 13.5856L2.05578 13.9863C2.01022 14.2851 1.98722 14.5884 1.98722 14.8907C1.98722 15.1931 2.01022 15.4962 2.05578 15.7952L1.36328 16.1959C1.07466 16.3628 0.975283 16.7337 1.14172 17.0224L2.68966 19.7091C2.77053 19.8495 2.90128 19.9499 3.05772 19.9918C3.21416 20.0337 3.3776 20.0122 3.51772 19.931L4.20928 19.5309C4.68285 19.9123 5.20647 20.2156 5.77091 20.4354V21.2364C5.77091 21.5703 6.04259 21.842 6.37647 21.842H9.47191C9.80585 21.842 10.0775 21.5703 10.0775 21.2364V20.4354C10.642 20.2156 11.1656 19.9123 11.6391 19.5309L12.3307 19.9311C12.4709 20.0121 12.6342 20.0337 12.7908 19.9917C12.9472 19.9498 13.0778 19.8494 13.1587 19.7091L14.7066 17.0225C14.8731 16.7336 14.7737 16.3628 14.4852 16.1959L13.7926 15.7951C13.8382 15.4963 13.8612 15.1931 13.8612 14.8907C13.8612 14.5884 13.8382 14.2852 13.7926 13.9862L14.4851 13.5856C14.7738 13.4186 14.8731 13.0477 14.7067 12.7589L13.1587 10.0722C13.0778 9.93194 12.9472 9.8315 12.7908 9.78962C12.6342 9.74762 12.4709 9.76925 12.3306 9.85037L11.6391 10.2505C11.1656 9.86912 10.642 9.56587 10.0775 9.346V8.54506C10.0775 8.21112 9.80578 7.93943 9.47191 7.93943H8.3926V2.34387C8.3926 1.56843 9.02347 0.937622 9.79885 0.937622H22.2988V2.81262H17.938C17.6791 2.81262 17.4693 3.0225 17.4693 3.28137C17.4693 3.54025 17.6791 3.75012 17.938 3.75012H22.2988V6.29587C22.2988 6.31193 22.2997 6.32787 22.3 6.34387H11.4445C11.3583 6.34387 11.2883 6.27375 11.2883 6.18762V3.90637C11.2883 3.82025 11.3583 3.75012 11.4445 3.75012H15.7505C16.0095 3.75012 16.2193 3.54025 16.2193 3.28137C16.2193 3.0225 16.0095 2.81262 15.7505 2.81262H11.4445C10.8415 2.81262 10.3508 3.30331 10.3508 3.90637V6.18762C10.3508 6.79068 10.8415 7.28137 11.4445 7.28137H22.5168C22.8898 8.08256 23.7022 8.63962 24.6426 8.63962H30.0008V29.6564C30.0008 30.4318 29.3699 31.0626 28.5945 31.0626H9.79891C9.02353 31.0626 8.39266 30.4318 8.39266 29.6564V23.5607C8.39266 23.3019 8.18284 23.092 7.92391 23.092C7.66497 23.092 7.45516 23.3019 7.45516 23.5607V29.6564C7.45516 30.9487 8.50653 32.0001 9.79891 32.0001H28.5945C29.8869 32.0001 30.9383 30.9487 30.9383 29.6564V8.17206C30.9442 8.12218 30.8939 7.92831 30.8011 7.83931ZM9.14003 8.87694V9.57843C9.14003 9.8365 9.30447 10.0665 9.54916 10.1506C10.1594 10.3607 10.7167 10.6836 11.2055 11.1102C11.4011 11.2808 11.6829 11.3084 11.9069 11.1787L12.5125 10.8284L13.729 12.9401L13.1225 13.2909C12.8993 13.42 12.7826 13.6772 12.8318 13.9306C12.8928 14.2457 12.9238 14.5687 12.9238 14.8908C12.9238 15.2128 12.8928 15.5359 12.8319 15.8506C12.7826 16.1044 12.8993 16.3615 13.1225 16.4906L13.729 16.8415L12.5125 18.9531L11.907 18.6028C11.683 18.4732 11.401 18.5007 11.2055 18.6714C10.7167 19.098 10.1594 19.4208 9.54903 19.631C9.30441 19.7153 9.14003 19.9452 9.14003 20.2031V20.9046H6.70841V20.2031C6.70841 19.9452 6.54403 19.7152 6.29928 19.6309C5.6891 19.4209 5.13178 19.0981 4.64291 18.6714C4.44728 18.5007 4.16541 18.4732 3.94147 18.6028L3.33597 18.9531L2.11941 16.8415L2.7261 16.4905C2.9491 16.3614 3.06591 16.1042 3.0166 15.8511C2.9556 15.5359 2.92466 15.2128 2.92466 14.8908C2.92466 14.5688 2.9556 14.2457 3.01653 13.931C3.06585 13.6774 2.94916 13.4202 2.72597 13.291L2.11941 12.9401L3.33597 10.8284L3.94166 11.1789C4.16553 11.3083 4.44741 11.2807 4.64297 11.1102C5.13178 10.6836 5.68903 10.3607 6.29916 10.1507C6.54391 10.0665 6.70834 9.83656 6.70834 9.57843V8.87694H9.14003ZM24.6426 7.70212C24.0022 7.70212 23.4608 7.27168 23.2915 6.68506C23.29 6.67975 23.2887 6.67443 23.287 6.66925C23.2542 6.55025 23.2363 6.42512 23.2363 6.29587V3.28262C23.2363 3.28218 23.2364 3.28181 23.2364 3.28137C23.2364 3.28093 23.2363 3.28056 23.2363 3.28012V1.60043L29.338 7.70206H24.6426V7.70212ZM4.90991 14.8907C4.90991 16.5529 6.26216 17.9051 7.92422 17.9051C9.58628 17.9051 10.9385 16.5529 10.9385 14.8907C10.9385 13.2286 9.58628 11.8764 7.92422 11.8764C6.26216 11.8764 4.90991 13.2286 4.90991 14.8907ZM10.0011 14.8907C10.0011 16.0359 9.06947 16.9676 7.92428 16.9676C6.7791 16.9676 5.84741 16.0359 5.84741 14.8907C5.84741 13.7456 6.77903 12.8139 7.92422 12.8139C9.06941 12.8139 10.0011 13.7456 10.0011 14.8907ZM27.6572 13.1876H17.3823C17.1234 13.1876 16.9136 13.3975 16.9136 13.6564C16.9136 13.9152 17.1234 14.1251 17.3823 14.1251H27.6571C27.916 14.1251 28.1258 13.9152 28.1258 13.6564C28.1258 13.3975 27.916 13.1876 27.6572 13.1876ZM13.1636 22.0939C13.1636 22.3527 13.3734 22.5626 13.6323 22.5626H27.6571C27.916 22.5626 28.1258 22.3527 28.1258 22.0939C28.1258 21.835 27.916 21.6251 27.6571 21.6251H13.6323C13.3735 21.6251 13.1636 21.835 13.1636 22.0939ZM10.3511 24.9064C10.3511 25.1652 10.5609 25.3751 10.8198 25.3751H27.6571C27.916 25.3751 28.1258 25.1652 28.1258 24.9064C28.1258 24.6475 27.916 24.4376 27.6571 24.4376H10.8198C10.561 24.4376 10.3511 24.6475 10.3511 24.9064ZM10.8198 28.1876H27.6571C27.916 28.1876 28.1258 27.9777 28.1258 27.7189C28.1258 27.46 27.916 27.2501 27.6571 27.2501H10.8198C10.5609 27.2501 10.3511 27.46 10.3511 27.7189C10.3511 27.9777 10.561 28.1876 10.8198 28.1876ZM27.6572 10.3751H16.7273C16.4683 10.3751 16.2585 10.585 16.2585 10.8439C16.2585 11.1027 16.4683 11.3126 16.7273 11.3126H27.6572C27.9161 11.3126 28.1259 11.1027 28.1259 10.8439C28.1259 10.585 27.916 10.3751 27.6572 10.3751ZM15.9761 19.2814C15.9761 19.5402 16.1859 19.7501 16.4448 19.7501H27.6571C27.916 19.7501 28.1258 19.5402 28.1258 19.2814C28.1258 19.0225 27.916 18.8126 27.6571 18.8126H16.4448C16.186 18.8126 15.9761 19.0225 15.9761 19.2814ZM27.6572 16.0001H17.3823C17.1234 16.0001 16.9136 16.21 16.9136 16.4689C16.9136 16.7277 17.1234 16.9376 17.3823 16.9376H27.6571C27.916 16.9376 28.1258 16.7277 28.1258 16.4689C28.1258 16.21 27.916 16.0001 27.6572 16.0001Z" fill="#2F71FF"/>
</g>
<defs>
<clipPath id="clip0_89_795">
<rect width="32" height="32" fill="white"/>
</clipPath>
</defs>
</svg>
