<svg width="293" height="285" viewBox="0 0 293 285" fill="none" xmlns="http://www.w3.org/2000/svg">
<path d="M213.483 236.498C227.001 217.878 234.949 195.147 234.949 170.585C234.949 107.402 182.367 56.2055 117.474 56.2055C92.2126 56.2055 68.8667 63.9782 49.7075 77.1745V0H44.0307C19.7269 0 0 19.2073 0 42.8709V170.62C0 233.804 52.5814 285 117.474 285C118.574 285 119.674 284.931 120.774 284.931H248.679C273.019 284.931 292.71 265.724 292.71 242.06V236.533H213.483V236.498ZM49.8139 170.62C49.8139 134.278 80.1848 104.742 117.51 104.742C154.835 104.742 185.17 134.278 185.17 170.62C185.17 206.962 154.799 236.533 117.51 236.533C80.2203 236.533 49.8139 206.962 49.8139 170.62Z" fill="white" fill-opacity="0.1"/>
</svg>
