<svg width="1402" height="285" viewBox="0 0 1402 285" fill="none" xmlns="http://www.w3.org/2000/svg">
<g opacity="0.2">
<mask id="mask0_89_828" style="mask-type:alpha" maskUnits="userSpaceOnUse" x="0" y="0" width="1455" height="285">
<g clip-path="url(#clip0_89_828)">
<path d="M213.483 236.498C227.001 217.878 234.949 195.147 234.949 170.585C234.949 107.402 182.367 56.2055 117.474 56.2055C92.2126 56.2055 68.8667 63.9782 49.7075 77.1745V0H44.0307C19.7269 0 0 19.2073 0 42.8709V170.62C0 233.804 52.5814 285 117.474 285C118.574 285 119.674 284.931 120.774 284.931H248.679C273.019 284.931 292.71 265.724 292.71 242.06V236.533H213.483V236.498ZM49.8139 170.62C49.8139 134.278 80.1848 104.742 117.51 104.742C154.835 104.742 185.17 134.278 185.17 170.62C185.17 206.962 154.799 236.533 117.51 236.533C80.2203 236.533 49.8139 206.962 49.8139 170.62Z" fill="white"/>
<path d="M381.552 233.735V49.4C381.552 28.1891 399.221 10.9854 421.006 10.9854V117.904C429.202 98.8691 454.783 85.6382 480.967 85.6382C535.855 85.6382 571.193 123.12 571.193 179.636C571.193 236.153 535.855 273.945 480.967 273.945C454.783 273.945 428.918 260.749 421.006 241.991V272.08C399.221 272.08 381.552 254.876 381.552 233.665V233.735ZM476.213 124.053C444.033 124.053 421.006 147.095 421.006 179.947C420.687 213.111 443.394 235.565 476.213 235.565C509.032 235.565 531.739 213.456 531.739 179.636C531.739 145.816 509.351 124.018 476.213 124.018V124.053Z" fill="white"/>
<path d="M622.603 11.6418C636.157 11.6418 645.311 20.2436 645.311 33.7509C645.311 47.2582 636.157 56.1709 622.603 56.1709C609.05 56.1709 599.577 47.2582 599.577 33.7509C599.577 20.2436 608.411 11.6418 622.603 11.6418Z" fill="white"/>
<path d="M602.735 272.149V126.229C602.735 105.018 620.404 87.8145 642.188 87.8145V233.735C642.188 254.945 624.519 272.149 602.735 272.149Z" fill="white"/>
<path d="M737.133 48.8127V87.8145H778.148V124.053H737.133V206.685C737.133 221.782 749.693 234.011 765.197 234.011H778.148V272.115H761.756C716.625 272.115 697.714 253.978 697.714 208.827V124.053H669.614V87.8145H697.714L700.304 77.2091C704.349 60.5582 719.606 48.8127 737.168 48.8127H737.133Z" fill="white"/>
<path d="M805.645 272.149V49.4345C805.645 28.2236 823.314 11.02 845.099 11.02V233.735C845.099 254.945 827.43 272.149 805.645 272.149Z" fill="white"/>
<path d="M1025.55 242.025C1017.35 260.749 991.809 273.98 965.27 273.98C910.701 273.98 875.044 236.498 875.044 179.671C875.044 122.844 910.382 85.6727 965.27 85.6727C991.454 85.6727 1017.32 98.8691 1025.55 117.938V87.8146C1047.33 87.8146 1065 105.018 1065 126.229V233.769C1065 254.98 1047.33 272.184 1025.55 272.184V242.095V242.025ZM970.343 235.565C1003.16 235.565 1025.87 213.145 1025.55 179.947C1025.55 147.095 1002.2 124.053 970.024 124.053C937.844 124.053 914.498 146.162 914.498 179.671C914.498 213.18 937.205 235.6 970.343 235.6V235.565Z" fill="white"/>
<path d="M1102.86 272.149V49.4345C1102.86 28.2236 1120.53 11.02 1142.31 11.02V117.938C1150.51 98.9036 1176.06 85.6727 1202.28 85.6727C1257.16 85.6727 1292.5 123.155 1292.5 179.671C1292.5 236.187 1257.16 273.98 1202.28 273.98C1176.09 273.98 1150.23 260.784 1142.31 242.025C1142.31 258.642 1128.48 272.115 1111.41 272.115H1102.9L1102.86 272.149ZM1197.52 124.087C1165.34 124.087 1142.31 147.129 1142.31 179.982C1142 213.145 1164.7 235.6 1197.52 235.6C1230.34 235.6 1253.05 213.491 1253.05 179.671C1253.05 145.851 1230.66 124.053 1197.52 124.053V124.087Z" fill="white"/>
<path d="M1308.29 243.58L1398.84 125.296H1310.49C1310.49 104.604 1327.73 87.8145 1348.99 87.8145H1453.12V117.938L1364.45 234.667H1455C1455 255.36 1437.76 272.149 1416.5 272.149H1308.29V243.58Z" fill="white"/>
</g>
</mask>
<g mask="url(#mask0_89_828)">
<rect x="-518" y="-116" width="1920" height="355" fill="white" fill-opacity="0.3"/>
</g>
</g>
<defs>
</defs>
</svg>
