<svg width="165" height="32" viewBox="0 0 165 32" fill="none" xmlns="http://www.w3.org/2000/svg">
<g clip-path="url(#clip0_89_657)">
<path d="M24.2094 26.5542C25.7424 24.4635 26.6437 21.9113 26.6437 19.1535C26.6437 12.0592 20.6808 6.31079 13.3218 6.31079C10.4571 6.31079 7.80963 7.18352 5.63693 8.66521V0H4.99317C2.23707 0 0 2.15661 0 4.81358V19.1573C0 26.2516 5.96284 32 13.3218 32C13.4466 32 13.5713 31.9922 13.696 31.9922H28.2008C30.9609 31.9922 33.1939 29.8356 33.1939 27.1787V26.5581H24.2094V26.5542ZM5.649 19.1573C5.649 15.0768 9.09313 11.7605 13.3259 11.7605C17.5586 11.7605 20.9987 15.0768 20.9987 19.1573C20.9987 23.2378 17.5546 26.5581 13.3259 26.5581C9.09715 26.5581 5.649 23.2378 5.649 19.1573Z" fill="white"/>
<path d="M43.2688 26.2438V5.54661C43.2688 3.16503 45.2725 1.2334 47.7429 1.2334V13.2382C48.6724 11.101 51.5733 9.61546 54.5427 9.61546C60.767 9.61546 64.7744 13.8239 64.7744 20.1696C64.7744 26.5153 60.767 30.7587 54.5427 30.7587C51.5733 30.7587 48.6402 29.277 47.7429 27.1709V30.5493C45.2725 30.5493 43.2688 28.6176 43.2688 26.2361V26.2438ZM54.0035 13.9287C50.3542 13.9287 47.7429 16.5158 47.7429 20.2046C47.7067 23.9282 50.2818 26.4494 54.0035 26.4494C57.7253 26.4494 60.3003 23.967 60.3003 20.1696C60.3003 16.3723 57.7615 13.9248 54.0035 13.9248V13.9287Z" fill="white"/>
<path d="M70.6044 1.30713C72.1414 1.30713 73.1795 2.27295 73.1795 3.78955C73.1795 5.30616 72.1414 6.30689 70.6044 6.30689C69.0674 6.30689 67.9932 5.30616 67.9932 3.78955C67.9932 2.27295 68.995 1.30713 70.6044 1.30713Z" fill="white"/>
<path d="M68.3513 30.5571V14.1731C68.3513 11.7915 70.355 9.85986 72.8255 9.85986V26.2439C72.8255 28.6254 70.8218 30.5571 68.3513 30.5571Z" fill="white"/>
<path d="M83.5923 5.48071V9.85986H88.2435V13.9287H83.5923V23.2068C83.5923 24.9018 85.0166 26.2749 86.7749 26.2749H88.2435V30.5532H86.3846C81.2667 30.5532 79.1222 28.5168 79.1222 23.4473V13.9287H75.9355V9.85986H79.1222L79.4159 8.66908C79.8746 6.7995 81.6047 5.48071 83.5963 5.48071H83.5923Z" fill="white"/>
<path d="M91.3618 30.5571V5.55052C91.3618 3.16894 93.3655 1.2373 95.836 1.2373V26.2439C95.836 28.6254 93.8322 30.5571 91.3618 30.5571Z" fill="white"/>
<path d="M116.299 27.1748C115.37 29.2771 112.473 30.7627 109.463 30.7627C103.275 30.7627 99.2317 26.5542 99.2317 20.1736C99.2317 13.793 103.239 9.61938 109.463 9.61938C112.433 9.61938 115.366 11.1011 116.299 13.2422V9.85987C118.77 9.85987 120.774 11.7915 120.774 14.1731V26.2477C120.774 28.6293 118.77 30.561 116.299 30.561V27.1825V27.1748ZM110.039 26.4494C113.761 26.4494 116.336 23.9321 116.299 20.2046C116.299 16.5159 113.652 13.9287 110.003 13.9287C106.353 13.9287 103.706 16.4111 103.706 20.1736C103.706 23.936 106.281 26.4533 110.039 26.4533V26.4494Z" fill="white"/>
<path d="M125.067 30.5571V5.55052C125.067 3.16894 127.07 1.2373 129.541 1.2373V13.2422C130.47 11.1049 133.367 9.61936 136.341 9.61936C142.565 9.61936 146.572 13.8278 146.572 20.1735C146.572 26.5192 142.565 30.7626 136.341 30.7626C133.371 30.7626 130.438 29.2809 129.541 27.1748C129.541 29.0405 127.972 30.5532 126.036 30.5532H125.071L125.067 30.5571ZM135.801 13.9326C132.152 13.9326 129.541 16.5197 129.541 20.2085C129.505 23.9321 132.08 26.4533 135.801 26.4533C139.523 26.4533 142.098 23.9709 142.098 20.1735C142.098 16.3762 139.559 13.9287 135.801 13.9287V13.9326Z" fill="white"/>
<path d="M148.363 27.3493L158.631 14.0683H148.612C148.612 11.745 150.568 9.85986 152.978 9.85986H164.787V13.2422L154.732 26.3486H165C165 28.672 163.045 30.5571 160.634 30.5571H148.363V27.3493Z" fill="white"/>
</g>
<defs>
<clipPath id="clip0_89_657">
<rect width="165" height="32" fill="white"/>
</clipPath>
</defs>
</svg>
